<?xml version="1.0" encoding="utf-8"?>
<!-- Generator: Adobe Illustrator 24.1.1, SVG Export Plug-In . SVG Version: 6.00 Build 0)  -->
<svg version="1.1" id="Capa_1" xmlns="http://www.w3.org/2000/svg" xmlns:xlink="http://www.w3.org/1999/xlink" x="0px" y="0px"
	 viewBox="0 0 1920 1024" style="enable-background:new 0 0 1920 1024;" xml:space="preserve">
<style type="text/css">
	.st0{fill:#C32626;}
</style>
<g>
	<g>
		<g>
			<circle class="st0" cx="-31.07" cy="-410.98" r="18"/>
		</g>
		<g>
			<circle class="st0" cx="-31.07" cy="-293.6" r="18"/>
		</g>
		<g>
			<circle class="st0" cx="-31.07" cy="-176.22" r="18"/>
		</g>
		<g>
			<circle class="st0" cx="-31.07" cy="-58.84" r="18"/>
		</g>
		<g>
			<circle class="st0" cx="-31.07" cy="58.54" r="18"/>
		</g>
		<g>
			<circle class="st0" cx="-31.07" cy="175.92" r="18"/>
		</g>
		<g>
			<circle class="st0" cx="-31.07" cy="293.3" r="18"/>
		</g>
		<g>
			<circle class="st0" cx="-31.07" cy="410.68" r="18"/>
		</g>
		<g>
			<circle class="st0" cx="-31.07" cy="528.06" r="18"/>
		</g>
		<g>
			<circle class="st0" cx="-31.07" cy="645.44" r="18"/>
		</g>
		<g>
			<circle class="st0" cx="-31.07" cy="762.82" r="18"/>
		</g>
		<g>
			<circle class="st0" cx="-31.07" cy="880.2" r="18"/>
		</g>
		<g>
			<circle class="st0" cx="-31.07" cy="997.58" r="18"/>
		</g>
		<g>
			<circle class="st0" cx="-31.07" cy="1114.96" r="18"/>
		</g>
		<g>
			<circle class="st0" cx="-31.07" cy="1232.34" r="18"/>
		</g>
		<g>
			<circle class="st0" cx="-31.07" cy="1349.72" r="18"/>
		</g>
		<g>
			<circle class="st0" cx="-31.07" cy="1467.1" r="18"/>
		</g>
		<g>
			<circle class="st0" cx="-31.07" cy="1584.48" r="18"/>
		</g>
	</g>
	<g>
		<g>
			<circle class="st0" cx="102.57" cy="-410.98" r="18"/>
		</g>
		<g>
			<circle class="st0" cx="102.57" cy="-293.6" r="18"/>
		</g>
		<g>
			<circle class="st0" cx="102.57" cy="-176.22" r="18"/>
		</g>
		<g>
			<circle class="st0" cx="102.57" cy="-58.84" r="18"/>
		</g>
		<g>
			<circle class="st0" cx="102.57" cy="58.54" r="18"/>
		</g>
		<g>
			<circle class="st0" cx="102.57" cy="175.92" r="18"/>
		</g>
		<g>
			<circle class="st0" cx="102.57" cy="293.3" r="18"/>
		</g>
		<g>
			<circle class="st0" cx="102.57" cy="410.68" r="18"/>
		</g>
		<g>
			<circle class="st0" cx="102.57" cy="528.06" r="18"/>
		</g>
		<g>
			<circle class="st0" cx="102.57" cy="645.44" r="18"/>
		</g>
		<g>
			<circle class="st0" cx="102.57" cy="762.82" r="18"/>
		</g>
		<g>
			<circle class="st0" cx="102.57" cy="880.2" r="18"/>
		</g>
		<g>
			<circle class="st0" cx="102.57" cy="997.58" r="18"/>
		</g>
		<g>
			<circle class="st0" cx="102.57" cy="1114.96" r="18"/>
		</g>
		<g>
			<circle class="st0" cx="102.57" cy="1232.34" r="18"/>
		</g>
		<g>
			<circle class="st0" cx="102.57" cy="1349.72" r="18"/>
		</g>
		<g>
			<circle class="st0" cx="102.57" cy="1467.1" r="18"/>
		</g>
		<g>
			<circle class="st0" cx="102.57" cy="1584.48" r="18"/>
		</g>
	</g>
	<g>
		<g>
			<circle class="st0" cx="236.21" cy="-410.98" r="18"/>
		</g>
		<g>
			<circle class="st0" cx="236.21" cy="-293.6" r="18"/>
		</g>
		<g>
			<circle class="st0" cx="236.21" cy="-176.22" r="18"/>
		</g>
		<g>
			<circle class="st0" cx="236.21" cy="-58.84" r="18"/>
		</g>
		<g>
			<circle class="st0" cx="236.21" cy="58.54" r="18"/>
		</g>
		<g>
			<circle class="st0" cx="236.21" cy="175.92" r="18"/>
		</g>
		<g>
			<circle class="st0" cx="236.21" cy="293.3" r="18"/>
		</g>
		<g>
			<circle class="st0" cx="236.21" cy="410.68" r="18"/>
		</g>
		<g>
			<circle class="st0" cx="236.21" cy="528.06" r="18"/>
		</g>
		<g>
			<circle class="st0" cx="236.21" cy="645.44" r="18"/>
		</g>
		<g>
			<circle class="st0" cx="236.21" cy="762.82" r="18"/>
		</g>
		<g>
			<circle class="st0" cx="236.21" cy="880.2" r="18"/>
		</g>
		<g>
			<circle class="st0" cx="236.21" cy="997.58" r="18"/>
		</g>
		<g>
			<circle class="st0" cx="236.21" cy="1114.96" r="18"/>
		</g>
		<g>
			<circle class="st0" cx="236.21" cy="1232.34" r="18"/>
		</g>
		<g>
			<circle class="st0" cx="236.21" cy="1349.72" r="18"/>
		</g>
		<g>
			<circle class="st0" cx="236.21" cy="1467.1" r="18"/>
		</g>
		<g>
			<circle class="st0" cx="236.21" cy="1584.48" r="18"/>
		</g>
	</g>
	<g>
		<g>
			<circle class="st0" cx="369.86" cy="-410.98" r="18"/>
		</g>
		<g>
			<circle class="st0" cx="369.86" cy="-293.6" r="18"/>
		</g>
		<g>
			<circle class="st0" cx="369.86" cy="-176.22" r="18"/>
		</g>
		<g>
			<circle class="st0" cx="369.86" cy="-58.84" r="18"/>
		</g>
		<g>
			<circle class="st0" cx="369.86" cy="58.54" r="18"/>
		</g>
		<g>
			<circle class="st0" cx="369.86" cy="175.92" r="18"/>
		</g>
		<g>
			<circle class="st0" cx="369.86" cy="293.3" r="18"/>
		</g>
		<g>
			<circle class="st0" cx="369.86" cy="410.68" r="18"/>
		</g>
		<g>
			<circle class="st0" cx="369.86" cy="528.06" r="18"/>
		</g>
		<g>
			<circle class="st0" cx="369.86" cy="645.44" r="18"/>
		</g>
		<g>
			<circle class="st0" cx="369.86" cy="762.82" r="18"/>
		</g>
		<g>
			<circle class="st0" cx="369.86" cy="880.2" r="18"/>
		</g>
		<g>
			<circle class="st0" cx="369.86" cy="997.58" r="18"/>
		</g>
		<g>
			<circle class="st0" cx="369.86" cy="1114.96" r="18"/>
		</g>
		<g>
			<circle class="st0" cx="369.86" cy="1232.34" r="18"/>
		</g>
		<g>
			<circle class="st0" cx="369.86" cy="1349.72" r="18"/>
		</g>
		<g>
			<circle class="st0" cx="369.86" cy="1467.1" r="18"/>
		</g>
		<g>
			<circle class="st0" cx="369.86" cy="1584.48" r="18"/>
		</g>
	</g>
	<g>
		<g>
			<circle class="st0" cx="503.5" cy="-410.98" r="18"/>
		</g>
		<g>
			<circle class="st0" cx="503.5" cy="-293.6" r="18"/>
		</g>
		<g>
			<circle class="st0" cx="503.5" cy="-176.22" r="18"/>
		</g>
		<g>
			<circle class="st0" cx="503.5" cy="-58.84" r="18"/>
		</g>
		<g>
			<circle class="st0" cx="503.5" cy="58.54" r="18"/>
		</g>
		<g>
			<circle class="st0" cx="503.5" cy="175.92" r="18"/>
		</g>
		<g>
			<circle class="st0" cx="503.5" cy="293.3" r="18"/>
		</g>
		<g>
			<circle class="st0" cx="503.5" cy="410.68" r="18"/>
		</g>
		<g>
			<circle class="st0" cx="503.5" cy="528.06" r="18"/>
		</g>
		<g>
			<circle class="st0" cx="503.5" cy="645.44" r="18"/>
		</g>
		<g>
			<circle class="st0" cx="503.5" cy="762.82" r="18"/>
		</g>
		<g>
			<circle class="st0" cx="503.5" cy="880.2" r="18"/>
		</g>
		<g>
			<circle class="st0" cx="503.5" cy="997.58" r="18"/>
		</g>
		<g>
			<circle class="st0" cx="503.5" cy="1114.96" r="18"/>
		</g>
		<g>
			<circle class="st0" cx="503.5" cy="1232.34" r="18"/>
		</g>
		<g>
			<circle class="st0" cx="503.5" cy="1349.72" r="18"/>
		</g>
		<g>
			<circle class="st0" cx="503.5" cy="1467.1" r="18"/>
		</g>
		<g>
			<circle class="st0" cx="503.5" cy="1584.48" r="18"/>
		</g>
	</g>
	<g>
		<g>
			<circle class="st0" cx="637.14" cy="-410.98" r="18"/>
		</g>
		<g>
			<circle class="st0" cx="637.14" cy="-293.6" r="18"/>
		</g>
		<g>
			<circle class="st0" cx="637.14" cy="-176.22" r="18"/>
		</g>
		<g>
			<circle class="st0" cx="637.14" cy="-58.84" r="18"/>
		</g>
		<g>
			<circle class="st0" cx="637.14" cy="58.54" r="18"/>
		</g>
		<g>
			<circle class="st0" cx="637.14" cy="175.92" r="18"/>
		</g>
		<g>
			<circle class="st0" cx="637.14" cy="293.3" r="18"/>
		</g>
		<g>
			<circle class="st0" cx="637.14" cy="410.68" r="18"/>
		</g>
		<g>
			<circle class="st0" cx="637.14" cy="528.06" r="18"/>
		</g>
		<g>
			<circle class="st0" cx="637.14" cy="645.44" r="18"/>
		</g>
		<g>
			<circle class="st0" cx="637.14" cy="762.82" r="18"/>
		</g>
		<g>
			<circle class="st0" cx="637.14" cy="880.2" r="18"/>
		</g>
		<g>
			<circle class="st0" cx="637.14" cy="997.58" r="18"/>
		</g>
		<g>
			<circle class="st0" cx="637.14" cy="1114.96" r="18"/>
		</g>
		<g>
			<circle class="st0" cx="637.14" cy="1232.34" r="18"/>
		</g>
		<g>
			<circle class="st0" cx="637.14" cy="1349.72" r="18"/>
		</g>
		<g>
			<circle class="st0" cx="637.14" cy="1467.1" r="18"/>
		</g>
		<g>
			<circle class="st0" cx="637.14" cy="1584.48" r="18"/>
		</g>
	</g>
	<g>
		<g>
			<circle class="st0" cx="770.79" cy="-410.98" r="18"/>
		</g>
		<g>
			<circle class="st0" cx="770.79" cy="-293.6" r="18"/>
		</g>
		<g>
			<circle class="st0" cx="770.79" cy="-176.22" r="18"/>
		</g>
		<g>
			<circle class="st0" cx="770.79" cy="-58.84" r="18"/>
		</g>
		<g>
			<circle class="st0" cx="770.79" cy="58.54" r="18"/>
		</g>
		<g>
			<circle class="st0" cx="770.79" cy="175.92" r="18"/>
		</g>
		<g>
			<circle class="st0" cx="770.79" cy="293.3" r="18"/>
		</g>
		<g>
			<circle class="st0" cx="770.79" cy="410.68" r="18"/>
		</g>
		<g>
			<circle class="st0" cx="770.79" cy="528.06" r="18"/>
		</g>
		<g>
			<circle class="st0" cx="770.79" cy="645.44" r="18"/>
		</g>
		<g>
			<circle class="st0" cx="770.79" cy="762.82" r="18"/>
		</g>
		<g>
			<circle class="st0" cx="770.79" cy="880.2" r="18"/>
		</g>
		<g>
			<circle class="st0" cx="770.79" cy="997.58" r="18"/>
		</g>
		<g>
			<circle class="st0" cx="770.79" cy="1114.96" r="18"/>
		</g>
		<g>
			<circle class="st0" cx="770.79" cy="1232.34" r="18"/>
		</g>
		<g>
			<circle class="st0" cx="770.79" cy="1349.72" r="18"/>
		</g>
		<g>
			<circle class="st0" cx="770.79" cy="1467.1" r="18"/>
		</g>
		<g>
			<circle class="st0" cx="770.79" cy="1584.48" r="18"/>
		</g>
	</g>
	<g>
		<g>
			<circle class="st0" cx="904.43" cy="-410.98" r="18"/>
		</g>
		<g>
			<circle class="st0" cx="904.43" cy="-293.6" r="18"/>
		</g>
		<g>
			<circle class="st0" cx="904.43" cy="-176.22" r="18"/>
		</g>
		<g>
			<circle class="st0" cx="904.43" cy="-58.84" r="18"/>
		</g>
		<g>
			<circle class="st0" cx="904.43" cy="58.54" r="18"/>
		</g>
		<g>
			<circle class="st0" cx="904.43" cy="175.92" r="18"/>
		</g>
		<g>
			<circle class="st0" cx="904.43" cy="293.3" r="18"/>
		</g>
		<g>
			<circle class="st0" cx="904.43" cy="410.68" r="18"/>
		</g>
		<g>
			<circle class="st0" cx="904.43" cy="528.06" r="18"/>
		</g>
		<g>
			<circle class="st0" cx="904.43" cy="645.44" r="18"/>
		</g>
		<g>
			<circle class="st0" cx="904.43" cy="762.82" r="18"/>
		</g>
		<g>
			<circle class="st0" cx="904.43" cy="880.2" r="18"/>
		</g>
		<g>
			<circle class="st0" cx="904.43" cy="997.58" r="18"/>
		</g>
		<g>
			<circle class="st0" cx="904.43" cy="1114.96" r="18"/>
		</g>
		<g>
			<circle class="st0" cx="904.43" cy="1232.34" r="18"/>
		</g>
		<g>
			<circle class="st0" cx="904.43" cy="1349.72" r="18"/>
		</g>
		<g>
			<circle class="st0" cx="904.43" cy="1467.1" r="18"/>
		</g>
		<g>
			<circle class="st0" cx="904.43" cy="1584.48" r="18"/>
		</g>
	</g>
	<g>
		<g>
			<circle class="st0" cx="1038.07" cy="-410.98" r="18"/>
		</g>
		<g>
			<circle class="st0" cx="1038.07" cy="-293.6" r="18"/>
		</g>
		<g>
			<circle class="st0" cx="1038.07" cy="-176.22" r="18"/>
		</g>
		<g>
			<circle class="st0" cx="1038.07" cy="-58.84" r="18"/>
		</g>
		<g>
			<circle class="st0" cx="1038.07" cy="58.54" r="18"/>
		</g>
		<g>
			<circle class="st0" cx="1038.07" cy="175.92" r="18"/>
		</g>
		<g>
			<circle class="st0" cx="1038.07" cy="293.3" r="18"/>
		</g>
		<g>
			<circle class="st0" cx="1038.07" cy="410.68" r="18"/>
		</g>
		<g>
			<circle class="st0" cx="1038.07" cy="528.06" r="18"/>
		</g>
		<g>
			<circle class="st0" cx="1038.07" cy="645.44" r="18"/>
		</g>
		<g>
			<circle class="st0" cx="1038.07" cy="762.82" r="18"/>
		</g>
		<g>
			<circle class="st0" cx="1038.07" cy="880.2" r="18"/>
		</g>
		<g>
			<circle class="st0" cx="1038.07" cy="997.58" r="18"/>
		</g>
		<g>
			<circle class="st0" cx="1038.07" cy="1114.96" r="18"/>
		</g>
		<g>
			<circle class="st0" cx="1038.07" cy="1232.34" r="18"/>
		</g>
		<g>
			<circle class="st0" cx="1038.07" cy="1349.72" r="18"/>
		</g>
		<g>
			<circle class="st0" cx="1038.07" cy="1467.1" r="18"/>
		</g>
		<g>
			<circle class="st0" cx="1038.07" cy="1584.48" r="18"/>
		</g>
	</g>
	<g>
		<g>
			<circle class="st0" cx="1171.71" cy="-410.98" r="18"/>
		</g>
		<g>
			<circle class="st0" cx="1171.71" cy="-293.6" r="18"/>
		</g>
		<g>
			<circle class="st0" cx="1171.71" cy="-176.22" r="18"/>
		</g>
		<g>
			<circle class="st0" cx="1171.71" cy="-58.84" r="18"/>
		</g>
		<g>
			<circle class="st0" cx="1171.71" cy="58.54" r="18"/>
		</g>
		<g>
			<circle class="st0" cx="1171.71" cy="175.92" r="18"/>
		</g>
		<g>
			<circle class="st0" cx="1171.71" cy="293.3" r="18"/>
		</g>
		<g>
			<circle class="st0" cx="1171.71" cy="410.68" r="18"/>
		</g>
		<g>
			<circle class="st0" cx="1171.71" cy="528.06" r="18"/>
		</g>
		<g>
			<circle class="st0" cx="1171.71" cy="645.44" r="18"/>
		</g>
		<g>
			<circle class="st0" cx="1171.71" cy="762.82" r="18"/>
		</g>
		<g>
			<circle class="st0" cx="1171.71" cy="880.2" r="18"/>
		</g>
		<g>
			<circle class="st0" cx="1171.71" cy="997.58" r="18"/>
		</g>
		<g>
			<circle class="st0" cx="1171.71" cy="1114.96" r="18"/>
		</g>
		<g>
			<circle class="st0" cx="1171.71" cy="1232.34" r="18"/>
		</g>
		<g>
			<circle class="st0" cx="1171.71" cy="1349.72" r="18"/>
		</g>
		<g>
			<circle class="st0" cx="1171.71" cy="1467.1" r="18"/>
		</g>
		<g>
			<circle class="st0" cx="1171.71" cy="1584.48" r="18"/>
		</g>
	</g>
	<g>
		<g>
			<circle class="st0" cx="1305.36" cy="-410.98" r="18"/>
		</g>
		<g>
			<circle class="st0" cx="1305.36" cy="-293.6" r="18"/>
		</g>
		<g>
			<circle class="st0" cx="1305.36" cy="-176.22" r="18"/>
		</g>
		<g>
			<circle class="st0" cx="1305.36" cy="-58.84" r="18"/>
		</g>
		<g>
			<circle class="st0" cx="1305.36" cy="58.54" r="18"/>
		</g>
		<g>
			<circle class="st0" cx="1305.36" cy="175.92" r="18"/>
		</g>
		<g>
			<circle class="st0" cx="1305.36" cy="293.3" r="18"/>
		</g>
		<g>
			<circle class="st0" cx="1305.36" cy="410.68" r="18"/>
		</g>
		<g>
			<circle class="st0" cx="1305.36" cy="528.06" r="18"/>
		</g>
		<g>
			<circle class="st0" cx="1305.36" cy="645.44" r="18"/>
		</g>
		<g>
			<circle class="st0" cx="1305.36" cy="762.82" r="18"/>
		</g>
		<g>
			<circle class="st0" cx="1305.36" cy="880.2" r="18"/>
		</g>
		<g>
			<circle class="st0" cx="1305.36" cy="997.58" r="18"/>
		</g>
		<g>
			<circle class="st0" cx="1305.36" cy="1114.96" r="18"/>
		</g>
		<g>
			<circle class="st0" cx="1305.36" cy="1232.34" r="18"/>
		</g>
		<g>
			<circle class="st0" cx="1305.36" cy="1349.72" r="18"/>
		</g>
		<g>
			<circle class="st0" cx="1305.36" cy="1467.1" r="18"/>
		</g>
		<g>
			<circle class="st0" cx="1305.36" cy="1584.48" r="18"/>
		</g>
	</g>
	<g>
		<g>
			<circle class="st0" cx="1439" cy="-410.98" r="18"/>
		</g>
		<g>
			<circle class="st0" cx="1439" cy="-293.6" r="18"/>
		</g>
		<g>
			<circle class="st0" cx="1439" cy="-176.22" r="18"/>
		</g>
		<g>
			<circle class="st0" cx="1439" cy="-58.84" r="18"/>
		</g>
		<g>
			<circle class="st0" cx="1439" cy="58.54" r="18"/>
		</g>
		<g>
			<circle class="st0" cx="1439" cy="175.92" r="18"/>
		</g>
		<g>
			<circle class="st0" cx="1439" cy="293.3" r="18"/>
		</g>
		<g>
			<circle class="st0" cx="1439" cy="410.68" r="18"/>
		</g>
		<g>
			<circle class="st0" cx="1439" cy="528.06" r="18"/>
		</g>
		<g>
			<circle class="st0" cx="1439" cy="645.44" r="18"/>
		</g>
		<g>
			<circle class="st0" cx="1439" cy="762.82" r="18"/>
		</g>
		<g>
			<circle class="st0" cx="1439" cy="880.2" r="18"/>
		</g>
		<g>
			<circle class="st0" cx="1439" cy="997.58" r="18"/>
		</g>
		<g>
			<circle class="st0" cx="1439" cy="1114.96" r="18"/>
		</g>
		<g>
			<circle class="st0" cx="1439" cy="1232.34" r="18"/>
		</g>
		<g>
			<circle class="st0" cx="1439" cy="1349.72" r="18"/>
		</g>
		<g>
			<circle class="st0" cx="1439" cy="1467.1" r="18"/>
		</g>
		<g>
			<circle class="st0" cx="1439" cy="1584.48" r="18"/>
		</g>
	</g>
	<g>
		<g>
			<circle class="st0" cx="1572.64" cy="-410.98" r="18"/>
		</g>
		<g>
			<circle class="st0" cx="1572.64" cy="-293.6" r="18"/>
		</g>
		<g>
			<circle class="st0" cx="1572.64" cy="-176.22" r="18"/>
		</g>
		<g>
			<circle class="st0" cx="1572.64" cy="-58.84" r="18"/>
		</g>
		<g>
			<circle class="st0" cx="1572.64" cy="58.54" r="18"/>
		</g>
		<g>
			<circle class="st0" cx="1572.64" cy="175.92" r="18"/>
		</g>
		<g>
			<circle class="st0" cx="1572.64" cy="293.3" r="18"/>
		</g>
		<g>
			<circle class="st0" cx="1572.64" cy="410.68" r="18"/>
		</g>
		<g>
			<circle class="st0" cx="1572.64" cy="528.06" r="18"/>
		</g>
		<g>
			<circle class="st0" cx="1572.64" cy="645.44" r="18"/>
		</g>
		<g>
			<circle class="st0" cx="1572.64" cy="762.82" r="18"/>
		</g>
		<g>
			<circle class="st0" cx="1572.64" cy="880.2" r="18"/>
		</g>
		<g>
			<circle class="st0" cx="1572.64" cy="997.58" r="18"/>
		</g>
		<g>
			<circle class="st0" cx="1572.64" cy="1114.96" r="18"/>
		</g>
		<g>
			<circle class="st0" cx="1572.64" cy="1232.34" r="18"/>
		</g>
		<g>
			<circle class="st0" cx="1572.64" cy="1349.72" r="18"/>
		</g>
		<g>
			<circle class="st0" cx="1572.64" cy="1467.1" r="18"/>
		</g>
		<g>
			<circle class="st0" cx="1572.64" cy="1584.48" r="18"/>
		</g>
	</g>
	<g>
		<g>
			<circle class="st0" cx="1706.29" cy="-410.98" r="18"/>
		</g>
		<g>
			<circle class="st0" cx="1706.29" cy="-293.6" r="18"/>
		</g>
		<g>
			<circle class="st0" cx="1706.29" cy="-176.22" r="18"/>
		</g>
		<g>
			<circle class="st0" cx="1706.29" cy="-58.84" r="18"/>
		</g>
		<g>
			<circle class="st0" cx="1706.29" cy="58.54" r="18"/>
		</g>
		<g>
			<circle class="st0" cx="1706.29" cy="175.92" r="18"/>
		</g>
		<g>
			<circle class="st0" cx="1706.29" cy="293.3" r="18"/>
		</g>
		<g>
			<circle class="st0" cx="1706.29" cy="410.68" r="18"/>
		</g>
		<g>
			<circle class="st0" cx="1706.29" cy="528.06" r="18"/>
		</g>
		<g>
			<circle class="st0" cx="1706.29" cy="645.44" r="18"/>
		</g>
		<g>
			<circle class="st0" cx="1706.29" cy="762.82" r="18"/>
		</g>
		<g>
			<circle class="st0" cx="1706.29" cy="880.2" r="18"/>
		</g>
		<g>
			<circle class="st0" cx="1706.29" cy="997.58" r="18"/>
		</g>
		<g>
			<circle class="st0" cx="1706.29" cy="1114.96" r="18"/>
		</g>
		<g>
			<circle class="st0" cx="1706.29" cy="1232.34" r="18"/>
		</g>
		<g>
			<circle class="st0" cx="1706.29" cy="1349.72" r="18"/>
		</g>
		<g>
			<circle class="st0" cx="1706.29" cy="1467.1" r="18"/>
		</g>
		<g>
			<circle class="st0" cx="1706.29" cy="1584.48" r="18"/>
		</g>
	</g>
	<g>
		<g>
			<circle class="st0" cx="1839.93" cy="-410.98" r="18"/>
		</g>
		<g>
			<circle class="st0" cx="1839.93" cy="-293.6" r="18"/>
		</g>
		<g>
			<circle class="st0" cx="1839.93" cy="-176.22" r="18"/>
		</g>
		<g>
			<circle class="st0" cx="1839.93" cy="-58.84" r="18"/>
		</g>
		<g>
			<circle class="st0" cx="1839.93" cy="58.54" r="18"/>
		</g>
		<g>
			<circle class="st0" cx="1839.93" cy="175.92" r="18"/>
		</g>
		<g>
			<circle class="st0" cx="1839.93" cy="293.3" r="18"/>
		</g>
		<g>
			<circle class="st0" cx="1839.93" cy="410.68" r="18"/>
		</g>
		<g>
			<circle class="st0" cx="1839.93" cy="528.06" r="18"/>
		</g>
		<g>
			<circle class="st0" cx="1839.93" cy="645.44" r="18"/>
		</g>
		<g>
			<circle class="st0" cx="1839.93" cy="762.82" r="18"/>
		</g>
		<g>
			<circle class="st0" cx="1839.93" cy="880.2" r="18"/>
		</g>
		<g>
			<circle class="st0" cx="1839.93" cy="997.58" r="18"/>
		</g>
		<g>
			<circle class="st0" cx="1839.93" cy="1114.96" r="18"/>
		</g>
		<g>
			<circle class="st0" cx="1839.93" cy="1232.34" r="18"/>
		</g>
		<g>
			<circle class="st0" cx="1839.93" cy="1349.72" r="18"/>
		</g>
		<g>
			<circle class="st0" cx="1839.93" cy="1467.1" r="18"/>
		</g>
		<g>
			<circle class="st0" cx="1839.93" cy="1584.48" r="18"/>
		</g>
	</g>
	<g>
		<g>
			<circle class="st0" cx="1973.57" cy="-410.98" r="18"/>
		</g>
		<g>
			<circle class="st0" cx="1973.57" cy="-293.6" r="18"/>
		</g>
		<g>
			<circle class="st0" cx="1973.57" cy="-176.22" r="18"/>
		</g>
		<g>
			<circle class="st0" cx="1973.57" cy="-58.84" r="18"/>
		</g>
		<g>
			<circle class="st0" cx="1973.57" cy="58.54" r="18"/>
		</g>
		<g>
			<circle class="st0" cx="1973.57" cy="175.92" r="18"/>
		</g>
		<g>
			<circle class="st0" cx="1973.57" cy="293.3" r="18"/>
		</g>
		<g>
			<circle class="st0" cx="1973.57" cy="410.68" r="18"/>
		</g>
		<g>
			<circle class="st0" cx="1973.57" cy="528.06" r="18"/>
		</g>
		<g>
			<circle class="st0" cx="1973.57" cy="645.44" r="18"/>
		</g>
		<g>
			<circle class="st0" cx="1973.57" cy="762.82" r="18"/>
		</g>
		<g>
			<circle class="st0" cx="1973.57" cy="880.2" r="18"/>
		</g>
		<g>
			<circle class="st0" cx="1973.57" cy="997.58" r="18"/>
		</g>
		<g>
			<circle class="st0" cx="1973.57" cy="1114.96" r="18"/>
		</g>
		<g>
			<circle class="st0" cx="1973.57" cy="1232.34" r="18"/>
		</g>
		<g>
			<circle class="st0" cx="1973.57" cy="1349.72" r="18"/>
		</g>
		<g>
			<circle class="st0" cx="1973.57" cy="1467.1" r="18"/>
		</g>
		<g>
			<circle class="st0" cx="1973.57" cy="1584.48" r="18"/>
		</g>
	</g>
</g>
</svg>
