<?xml version="1.0" encoding="utf-8"?>
<!-- Generator: Adobe Illustrator 24.1.1, SVG Export Plug-In . SVG Version: 6.00 Build 0)  -->
<svg version="1.1" id="Capa_1" xmlns="http://www.w3.org/2000/svg" xmlns:xlink="http://www.w3.org/1999/xlink" x="0px" y="0px"
	 viewBox="0 0 475 358" style="enable-background:new 0 0 475 358;" xml:space="preserve">
<style type="text/css">
	.st0{fill:#7B1E12;}
	.st1{fill:#FAB615;}
	.st2{fill:#F1851E;}
	.st3{fill:#777726;}
	.st4{fill:#FFFFFF;}
	.st5{font-family:'Marmelad-Regular';}
	.st6{font-size:16.1881px;}
</style>
<rect class="st0" width="237.46" height="178.88"/>
<rect y="179.12" class="st1" width="237.46" height="178.88"/>
<rect x="237.36" class="st2" width="237.46" height="178.88"/>
<rect x="237.36" y="179.12" class="st3" width="237.46" height="178.88"/>
<g>
	<path class="st4" d="M113.75,138.35l0.08-0.51c-1.4,0.59-2.78,0.88-4.13,0.88c-1.99,0-3.74-0.39-5.25-1.16
		c-1.51-0.77-2.68-1.87-3.52-3.29c-0.84-1.42-1.25-3.07-1.25-4.96c0-2.63,0.5-4.95,1.49-6.97c0.99-2.02,2.37-3.58,4.12-4.69
		c1.75-1.11,3.71-1.66,5.87-1.66c2.08,0,3.64,0.48,4.68,1.45c1.04,0.97,1.56,2.25,1.56,3.85c0,1.05-0.19,1.89-0.57,2.52
		c-0.38,0.63-0.93,0.95-1.64,0.95c-0.48,0-0.87-0.12-1.16-0.35c-0.29-0.23-0.44-0.55-0.44-0.96c0-0.18,0.04-0.48,0.11-0.91
		c0.11-0.5,0.16-0.89,0.16-1.17c0-0.75-0.23-1.32-0.68-1.73c-0.45-0.41-1.21-0.61-2.28-0.61c-1.3,0-2.5,0.37-3.61,1.12
		c-1.11,0.75-2,1.86-2.68,3.34c-0.68,1.48-1.01,3.26-1.01,5.34c0,2.13,0.58,3.78,1.75,4.94c1.16,1.16,2.85,1.75,5.05,1.75
		c1.23,0,2.5-0.28,3.84-0.83l0.37-3.25h-2.72c-0.5,0-0.88-0.12-1.15-0.36c-0.27-0.24-0.4-0.63-0.4-1.19c0-0.5,0.13-0.89,0.4-1.17
		c0.27-0.28,0.62-0.43,1.07-0.43h4.98c0.39,0,0.71,0.13,0.97,0.39c0.26,0.26,0.36,0.63,0.31,1.11c-0.05,0.57-0.23,1.86-0.53,3.86
		l-0.29,2.02c1.42-1.07,2.72-1.99,3.89-2.77c0.23-0.14,0.44-0.21,0.61-0.21c0.23,0,0.41,0.11,0.55,0.33c0.13,0.22,0.2,0.5,0.2,0.84
		c0,0.41-0.06,0.73-0.19,0.96c-0.12,0.23-0.32,0.44-0.59,0.61c-1.05,0.69-2.72,1.83-5.01,3.41c0,0-0.75,0.49-1.65,0.48
		C115.06,139.33,113.61,139.37,113.75,138.35"/>
	<path class="st4" d="M121.24,137.52c-0.66-0.8-0.99-1.85-0.99-3.14c0-1.42,0.33-2.77,0.99-4.04c0.66-1.27,1.53-2.29,2.62-3.06
		c1.09-0.77,2.25-1.16,3.48-1.16c0.39,0,0.65,0.08,0.79,0.23c0.13,0.15,0.24,0.42,0.33,0.81c0.37-0.07,0.76-0.11,1.17-0.11
		c0.87,0,1.31,0.31,1.31,0.93c0,0.37-0.13,1.26-0.4,2.66c-0.41,2.04-0.61,3.46-0.61,4.26c0,0.27,0.07,0.48,0.2,0.64
		c0.13,0.16,0.31,0.24,0.52,0.24c0.34,0,0.75-0.22,1.23-0.65c0.48-0.43,1.13-1.14,1.94-2.12c0.21-0.25,0.45-0.37,0.72-0.37
		c0.23,0,0.41,0.11,0.55,0.32c0.13,0.21,0.2,0.51,0.2,0.88c0,0.71-0.17,1.26-0.51,1.65c-0.73,0.91-1.5,1.67-2.32,2.29
		c-0.82,0.62-1.61,0.93-2.37,0.93c-0.59,0-1.12-0.2-1.61-0.6c-0.49-0.4-0.86-0.95-1.11-1.64c-0.92,1.49-2.09,2.24-3.49,2.24
		C122.78,138.72,121.9,138.32,121.24,137.52 M125.96,135.34c0.36-0.46,0.61-1.07,0.77-1.84l0.99-4.9c-0.75,0.02-1.43,0.3-2.06,0.84
		c-0.63,0.54-1.13,1.26-1.51,2.14c-0.37,0.89-0.56,1.83-0.56,2.82c0,0.55,0.11,0.96,0.33,1.23c0.22,0.27,0.53,0.4,0.92,0.4
		C125.23,136.03,125.6,135.8,125.96,135.34"/>
	<path class="st4" d="M133.59,137.65c-0.28-0.71-0.41-1.85-0.41-3.41c0-2.31,0.33-4.5,0.99-6.58c0.16-0.52,0.42-0.89,0.79-1.13
		c0.36-0.24,0.87-0.36,1.53-0.36c0.36,0,0.6,0.04,0.75,0.13c0.14,0.09,0.21,0.26,0.21,0.51c0,0.28-0.13,0.92-0.4,1.92
		c-0.18,0.71-0.32,1.33-0.43,1.87c-0.11,0.53-0.2,1.19-0.27,1.97c0.59-1.53,1.24-2.77,1.97-3.73c0.73-0.96,1.44-1.64,2.14-2.05
		c0.7-0.41,1.35-0.61,1.93-0.61c1.15,0,1.73,0.58,1.73,1.73c0,0.23-0.08,0.79-0.24,1.68c-0.14,0.71-0.21,1.16-0.21,1.33
		c0,0.62,0.22,0.93,0.67,0.93c0.5,0,1.14-0.39,1.92-1.17c0.23-0.23,0.47-0.35,0.72-0.35c0.23,0,0.41,0.1,0.55,0.31
		c0.13,0.2,0.2,0.48,0.2,0.81c0,0.66-0.18,1.17-0.53,1.55c-0.5,0.52-1.08,0.95-1.75,1.32c-0.67,0.36-1.37,0.55-2.12,0.55
		c-0.94,0-1.66-0.24-2.14-0.72c-0.49-0.48-0.73-1.13-0.73-1.95c0-0.27,0.03-0.53,0.08-0.8c0.04-0.36,0.05-0.6,0.05-0.72
		c0-0.28-0.1-0.43-0.29-0.43c-0.27,0-0.62,0.3-1.05,0.89c-0.44,0.6-0.87,1.38-1.29,2.36c-0.43,0.98-0.77,2.01-1.04,3.09
		c-0.2,0.83-0.42,1.4-0.68,1.69c-0.26,0.29-0.66,0.44-1.21,0.44C134.34,138.72,133.86,138.36,133.59,137.65"/>
	<path class="st4" d="M160.93,132.96c0.13,0.21,0.2,0.51,0.2,0.88c0,0.71-0.17,1.26-0.51,1.65c-0.73,0.89-1.53,1.65-2.4,2.28
		c-0.87,0.63-1.73,0.95-2.58,0.95c-1.35,0-2.38-0.79-3.09-2.37c-0.75,0.94-1.4,1.57-1.96,1.89c-0.56,0.32-1.21,0.48-1.96,0.48
		c-1.08,0-1.98-0.4-2.68-1.21c-0.7-0.81-1.05-1.86-1.05-3.16c0-1.42,0.3-2.74,0.91-3.96c0.6-1.22,1.43-2.21,2.49-2.98
		c1.06-0.77,2.24-1.23,3.56-1.37c0.34-3.45,0.98-6.39,1.93-8.83c0.95-2.44,2.2-3.66,3.74-3.66c0.76,0,1.4,0.35,1.91,1.04
		c0.51,0.69,0.76,1.74,0.76,3.14c0,1.99-0.49,4.32-1.47,6.98c-0.98,2.66-2.28,5.4-3.92,8.21c0.07,1.03,0.23,1.77,0.47,2.21
		c0.24,0.44,0.55,0.67,0.92,0.67c0.48,0,0.97-0.21,1.47-0.64c0.5-0.43,1.16-1.14,2-2.13c0.21-0.25,0.45-0.37,0.72-0.37
		C160.61,132.64,160.79,132.75,160.93,132.96 M150.57,135.62c0.34-0.28,0.76-0.79,1.28-1.53c-0.18-0.96-0.27-2.03-0.27-3.22
		c0-0.43,0.02-1.12,0.05-2.08c-0.98,0.3-1.79,0.95-2.44,1.96c-0.65,1-0.97,2.12-0.97,3.34c0,1.3,0.44,1.94,1.33,1.94
		C149.9,136.03,150.24,135.89,150.57,135.62 M156.22,117.95c-0.34,1.2-0.63,2.77-0.87,4.7c-0.24,1.94-0.41,3.96-0.52,6.07
		c1.99-4.33,2.98-7.82,2.98-10.44c0-0.67-0.06-1.2-0.17-1.57c-0.12-0.37-0.25-0.56-0.41-0.56
		C156.9,116.15,156.56,116.75,156.22,117.95"/>
	<path class="st4" d="M171.4,132.96c0.13,0.21,0.2,0.51,0.2,0.88c0,0.71-0.17,1.26-0.51,1.65c-0.66,0.8-1.59,1.54-2.78,2.21
		c-1.2,0.68-2.48,1.01-3.85,1.01c-1.86,0-3.31-0.51-4.34-1.52c-1.03-1.01-1.55-2.4-1.55-4.16c0-1.23,0.26-2.37,0.77-3.42
		c0.52-1.06,1.23-1.9,2.14-2.52c0.91-0.62,1.95-0.93,3.1-0.93c1.03,0,1.86,0.31,2.48,0.92c0.62,0.61,0.93,1.44,0.93,2.49
		c0,1.23-0.44,2.28-1.32,3.16c-0.88,0.88-2.37,1.58-4.46,2.09c0.44,0.82,1.29,1.23,2.53,1.23c0.8,0,1.71-0.28,2.73-0.84
		c1.02-0.56,1.91-1.29,2.65-2.2c0.21-0.25,0.45-0.37,0.72-0.37C171.08,132.64,171.26,132.75,171.4,132.96 M162.47,129.93
		c-0.45,0.76-0.68,1.69-0.68,2.77v0.05c1.05-0.25,1.87-0.62,2.48-1.12c0.6-0.5,0.91-1.07,0.91-1.73c0-0.34-0.09-0.61-0.28-0.81
		c-0.19-0.2-0.44-0.31-0.76-0.31C163.48,128.78,162.92,129.16,162.47,129.93"/>
	<path class="st4" d="M169.9,137.65c-0.28-0.71-0.41-1.85-0.41-3.41c0-2.31,0.33-4.5,0.99-6.58c0.16-0.52,0.42-0.89,0.79-1.13
		c0.36-0.24,0.87-0.36,1.53-0.36c0.36,0,0.6,0.04,0.75,0.13c0.14,0.09,0.21,0.26,0.21,0.51c0,0.28-0.13,0.92-0.4,1.92
		c-0.18,0.71-0.32,1.33-0.43,1.87c-0.11,0.53-0.2,1.19-0.27,1.97c0.59-1.53,1.24-2.77,1.97-3.73c0.73-0.96,1.44-1.64,2.14-2.05
		c0.7-0.41,1.35-0.61,1.93-0.61c0.57,0,1,0.15,1.29,0.44c0.29,0.29,0.44,0.72,0.44,1.29c0,0.46-0.1,1.33-0.29,2.61
		c-0.18,1.08-0.32,2.11-0.43,3.08c-0.11,0.97-0.16,2.05-0.16,3.24c0,0.68-0.14,1.16-0.41,1.45c-0.28,0.29-0.72,0.44-1.35,0.44
		c-0.59,0-1.01-0.15-1.28-0.45c-0.27-0.3-0.4-0.75-0.4-1.36c0-0.71,0.12-1.88,0.37-3.52c0.21-1.42,0.32-2.33,0.32-2.72
		c0-0.28-0.1-0.43-0.29-0.43c-0.23,0-0.56,0.3-0.97,0.89c-0.42,0.6-0.84,1.38-1.28,2.36c-0.44,0.98-0.79,2.01-1.05,3.09
		c-0.2,0.83-0.42,1.4-0.68,1.69c-0.26,0.29-0.66,0.44-1.21,0.44C170.65,138.72,170.18,138.36,169.9,137.65"/>
	<path class="st4" d="M116.68,71.38c2-0.52,4.11-0.77,6.28-0.68c1.95,0.08,3.82,0.42,5.59,0.99c1.6-5.16,1.88-12.53,0.45-20.45
		c-2.56-14.2-9.64-24.82-15.81-23.71c-6.17,1.11-9.1,13.53-6.54,27.73c0.16,0.87,0.33,1.73,0.52,2.57
		C111.8,62.4,115.12,67.22,116.68,71.38 M112.21,52.12c0.43-2.38,1.74-4.05,1.74-4.05c1.48-2.05,1.32,0.23,1.32,0.23l-0.05,1.53
		c-0.03,0.7,0.01,1.28,0.01,1.28c0.05,2.61,2.61,4.44,2.61,4.44c4.01,3.87,1.76,8.97,1.76,8.97c-0.58,2.35,0.55,1.81,0.55,1.81
		c0.34-0.34,0.92-2.55,0.92-2.55l0.26-1.05c0.4-1.52,0.16-3.4,0.16-3.4c-0.37-3.04-2.18-4.52-2.18-4.52
		c-0.67-0.49-1.4-1.42-1.4-1.42c-0.87-1.13-1.02-2.45-1.02-2.45c-0.22-1.19,0.14-4,0.14-4c0.12-0.87,1.09-0.76,1.09-0.76
		c1.5,0.19,2.87,1.29,2.87,1.29c2.77,1.87,4.14,5.86,4.14,5.86c1.19,3.09,1.18,5.26,1.18,5.26c0.37,5.88-2.14,8.45-2.14,8.45
		c-1.6,2.02-3.98,1.72-3.98,1.72c-3.22-0.25-5.65-4.21-5.65-4.21c-1.96-3.17-2.42-6.77-2.42-6.77
		C111.61,54.79,112.21,52.12,112.21,52.12"/>
	<path class="st4" d="M105.41,58.6c-1.1-1.04-2.27-2.07-3.5-3.07c-11.22-9.08-23.51-12.49-27.46-7.62
		c-3.94,4.87,1.95,16.19,13.17,25.27c0.47,0.38,0.94,0.75,1.42,1.11c6.1,0.98,11.39,2.82,15.12,5.12c1.98-2.56,4.54-4.66,7.47-6.1
		c1.13-0.56,2.32-1.02,3.56-1.37C113.54,67.81,110.12,63.07,105.41,58.6 M106.68,74.58c-2.6,1.91-7.02,0.5-7.02,0.5
		c-3.56-1.11-6.26-3.55-6.26-3.55c-2.33-1.94-3.62-4.35-3.62-4.35c-1.23-2.08-1.33-4.2-1.33-4.2c-0.21-2.52,1.15-0.69,1.15-0.69
		l0.96,1.19c0.44,0.55,0.85,0.96,0.85,0.96c1.75,1.94,4.87,1.66,4.87,1.66c5.57,0.31,7.2,5.64,7.2,5.64c1.1,2.16,1.6,1.01,1.6,1.01
		c0.03-0.48-0.97-2.53-0.97-2.53l-0.49-0.97c-0.69-1.41-2.1-2.68-2.1-2.68c-2.27-2.06-4.61-1.99-4.61-1.99
		c-0.83,0.07-1.99-0.16-1.99-0.16c-1.4-0.29-2.37-1.19-2.37-1.19c-0.94-0.76-2.51-3.12-2.51-3.12c-0.48-0.74,0.33-1.29,0.33-1.29
		c1.26-0.84,3.01-0.9,3.01-0.9c3.32-0.39,6.96,1.73,6.96,1.73c2.92,1.56,4.33,3.21,4.33,3.21c4.12,4.21,3.9,7.8,3.9,7.8
		C108.68,73.25,106.68,74.58,106.68,74.58"/>
	<path class="st4" d="M103.27,80.7c-3.78-2.22-9.11-3.97-15.22-4.82c-1.35-0.19-2.73-0.34-4.15-0.44
		c-14.4-1.01-26.43,3.24-26.87,9.49c-0.42,5.97,9.88,11.61,23.34,12.99c0.37-0.12,0.73-0.25,1.11-0.36
		c6.45-2.05,12.67-2.85,17.65-2.51c-0.04-0.54-0.07-1.09-0.07-1.64c0-3.75,0.97-7.27,2.67-10.33
		C102.19,82.26,102.7,81.46,103.27,80.7 M98.72,88.32c-1.03,3.06-5.47,4.44-5.47,4.44c-3.55,1.12-7.16,0.68-7.16,0.68
		c-3.02-0.25-5.46-1.49-5.46-1.49c-2.21-1-3.5-2.68-3.5-2.68c-1.62-1.94,0.54-1.22,0.54-1.22l1.47,0.42c0.67,0.2,1.24,0.3,1.24,0.3
		c2.54,0.59,4.94-1.44,4.94-1.44c4.74-2.93,9.13,0.5,9.13,0.5c2.14,1.14,1.89-0.09,1.89-0.09c-0.25-0.41-2.24-1.52-2.24-1.52
		l-0.95-0.51c-1.37-0.76-3.26-0.99-3.26-0.99c-3.04-0.39-4.92,1-4.92,1c-0.64,0.53-1.72,1.01-1.72,1.01
		c-1.31,0.56-2.63,0.38-2.63,0.38c-1.21-0.08-3.85-1.12-3.85-1.12c-0.82-0.33-0.46-1.24-0.46-1.24c0.55-1.41,1.96-2.46,1.96-2.46
		c2.49-2.22,6.69-2.57,6.69-2.57c3.29-0.4,5.39,0.15,5.39,0.15c5.79,1.09,7.66,4.15,7.66,4.15C99.6,86.08,98.72,88.32,98.72,88.32"
		/>
	<path class="st4" d="M99.46,98.63c-0.09-0.51-0.15-1.03-0.21-1.55c-4.99-0.23-11.18,0.71-17.59,2.91c-0.37,0.13-0.73,0.26-1.1,0.39
		c-13.06,4.76-21.92,13.06-19.94,18.83c2.03,5.93,14.75,6.94,28.4,2.26c7.58-2.6,13.85-6.41,17.59-10.3
		C102.94,108.02,100.33,103.63,99.46,98.63 M97.03,112.29c-2.83,2.42-6.33,3.42-6.33,3.42c-2.88,0.95-5.61,0.76-5.61,0.76
		c-2.42-0.06-4.27-1.11-4.27-1.11c-2.25-1.16,0.03-1.34,0.03-1.34l1.52-0.18c0.7-0.08,1.26-0.2,1.26-0.2
		c2.57-0.45,3.99-3.25,3.99-3.25c3.22-4.55,8.6-3.1,8.6-3.1c2.42,0.22,1.71-0.82,1.71-0.82c-0.39-0.28-2.66-0.53-2.66-0.53
		l-1.08-0.1c-1.56-0.16-3.39,0.36-3.39,0.36c-2.95,0.83-4.14,2.84-4.14,2.84c-0.38,0.73-1.19,1.6-1.19,1.6
		c-0.99,1.03-2.27,1.38-2.27,1.38c-1.14,0.4-3.98,0.47-3.98,0.47c-0.88,0.01-0.91-0.97-0.91-0.97c-0.04-1.51,0.84-3.03,0.84-3.03
		c1.43-3.02,5.16-4.98,5.16-4.98c2.87-1.65,5.02-1.97,5.02-1.97c5.75-1.25,8.68,0.84,8.68,0.84c2.23,1.27,2.3,3.68,2.3,3.68
		C100.58,109.29,97.03,112.29,97.03,112.29"/>
	<path class="st4" d="M126.09,78.32c-1.12-0.25-2.28-0.38-3.47-0.38c-1.76,0-3.46,0.29-5.04,0.81c-0.33,0.11-0.66,0.23-0.99,0.36
		c-2.81,1.14-5.22,3.05-6.98,5.47c0.06,0.07,0.11,0.13,0.16,0.2c-0.1,0-0.2-0.01-0.29-0.02c-1.84,2.61-2.92,5.8-2.92,9.23
		c0,0.39,0.02,0.77,0.05,1.15c0.04,0.5,0.09,1,0.17,1.48c0.58,3.52,2.3,6.65,4.77,9c2.88,2.74,6.78,4.43,11.07,4.43
		c8.87,0,16.06-7.19,16.06-16.06C138.68,86.32,133.29,79.91,126.09,78.32"/>
	<path class="st4" d="M148.35,106.58l-6.17-4.07c1.14-2.61,1.77-5.49,1.77-8.51c0-9.83-6.65-18.1-15.7-20.57
		c-1.79-0.49-3.68-0.76-5.63-0.76c-2.17,0-4.27,0.33-6.25,0.93c-1.23,0.38-2.41,0.86-3.53,1.44c-2.9,1.5-5.42,3.64-7.35,6.24
		c-0.56,0.76-1.07,1.55-1.53,2.38c-1.7,3.06-2.67,6.58-2.67,10.33c0,0.55,0.03,1.1,0.07,1.64c0.04,0.52,0.09,1.04,0.17,1.55
		c0.75,5.02,3.26,9.47,6.87,12.7c3.77,3.38,8.76,5.44,14.22,5.44c6.46,0,12.24-2.87,16.15-7.41l6.06,4
		c1.47,0.97,3.46,0.56,4.43-0.91C150.23,109.54,149.82,107.55,148.35,106.58 M138.99,101.95c-0.58,1.18-1.28,2.29-2.09,3.32
		c-3.33,4.22-8.49,6.93-14.28,6.93c-4.68,0-8.95-1.77-12.18-4.68c-3.19-2.88-5.36-6.88-5.88-11.38c0-0.03-0.01-0.05-0.01-0.08
		c-0.08-0.67-0.12-1.36-0.12-2.05c0-3.5,0.99-6.76,2.7-9.53c0.3-0.48,0.61-0.94,0.95-1.39c1.77-2.36,4.11-4.27,6.81-5.54
		c0.79-0.37,1.61-0.69,2.46-0.95c1.67-0.51,3.45-0.78,5.29-0.78c1.58,0,3.12,0.2,4.58,0.58c7.83,2.03,13.61,9.15,13.61,17.61
		C140.81,96.85,140.16,99.54,138.99,101.95"/>
	<text transform="matrix(1 0 0 1 117.43 151.4307)" class="st4 st5 st6">coffee</text>
	<path class="st4" d="M179.95,147.47h-13.77c-0.27,0-0.49-0.22-0.49-0.49v-0.78c0-0.27,0.22-0.49,0.49-0.49h13.77
		c0.27,0,0.49,0.22,0.49,0.49v0.78C180.44,147.25,180.22,147.47,179.95,147.47"/>
	<path class="st4" d="M114.72,147.47h-14.54c-0.27,0-0.49-0.22-0.49-0.49v-0.78c0-0.27,0.22-0.49,0.49-0.49h14.54
		c0.27,0,0.49,0.22,0.49,0.49v0.78C115.21,147.25,114.99,147.47,114.72,147.47"/>
</g>
<g>
	<path class="st4" d="M351.12,138.35l0.08-0.51c-1.4,0.59-2.78,0.88-4.13,0.88c-1.99,0-3.74-0.39-5.25-1.16
		c-1.51-0.77-2.68-1.87-3.52-3.29c-0.84-1.42-1.25-3.07-1.25-4.96c0-2.63,0.5-4.95,1.49-6.97c0.99-2.02,2.37-3.58,4.12-4.69
		c1.75-1.11,3.71-1.66,5.87-1.66c2.08,0,3.64,0.48,4.68,1.45c1.04,0.97,1.56,2.25,1.56,3.85c0,1.05-0.19,1.89-0.57,2.52
		c-0.38,0.63-0.93,0.95-1.64,0.95c-0.48,0-0.87-0.12-1.16-0.35c-0.29-0.23-0.44-0.55-0.44-0.96c0-0.18,0.04-0.48,0.11-0.91
		c0.11-0.5,0.16-0.89,0.16-1.17c0-0.75-0.23-1.32-0.68-1.73c-0.45-0.41-1.21-0.61-2.28-0.61c-1.3,0-2.5,0.37-3.61,1.12
		c-1.11,0.75-2,1.86-2.68,3.34c-0.68,1.48-1.01,3.26-1.01,5.34c0,2.13,0.58,3.78,1.75,4.94c1.16,1.16,2.85,1.75,5.05,1.75
		c1.23,0,2.5-0.28,3.84-0.83l0.37-3.25h-2.72c-0.5,0-0.88-0.12-1.15-0.36c-0.27-0.24-0.4-0.63-0.4-1.19c0-0.5,0.13-0.89,0.4-1.17
		c0.27-0.28,0.62-0.43,1.07-0.43h4.98c0.39,0,0.71,0.13,0.97,0.39c0.26,0.26,0.36,0.63,0.31,1.11c-0.05,0.57-0.23,1.86-0.53,3.86
		l-0.29,2.02c1.42-1.07,2.72-1.99,3.89-2.77c0.23-0.14,0.44-0.21,0.61-0.21c0.23,0,0.41,0.11,0.55,0.33c0.13,0.22,0.2,0.5,0.2,0.84
		c0,0.41-0.06,0.73-0.19,0.96c-0.12,0.23-0.32,0.44-0.59,0.61c-1.05,0.69-2.72,1.83-5.01,3.41c0,0-0.75,0.49-1.65,0.48
		C352.43,139.33,350.98,139.37,351.12,138.35"/>
	<path class="st4" d="M358.6,137.52c-0.66-0.8-0.99-1.85-0.99-3.14c0-1.42,0.33-2.77,0.99-4.04c0.66-1.27,1.53-2.29,2.62-3.06
		c1.09-0.77,2.25-1.16,3.48-1.16c0.39,0,0.65,0.08,0.79,0.23c0.13,0.15,0.24,0.42,0.33,0.81c0.37-0.07,0.76-0.11,1.17-0.11
		c0.87,0,1.31,0.31,1.31,0.93c0,0.37-0.13,1.26-0.4,2.66c-0.41,2.04-0.61,3.46-0.61,4.26c0,0.27,0.07,0.48,0.2,0.64
		c0.13,0.16,0.31,0.24,0.52,0.24c0.34,0,0.75-0.22,1.23-0.65c0.48-0.43,1.13-1.14,1.94-2.12c0.21-0.25,0.45-0.37,0.72-0.37
		c0.23,0,0.41,0.11,0.55,0.32c0.13,0.21,0.2,0.51,0.2,0.88c0,0.71-0.17,1.26-0.51,1.65c-0.73,0.91-1.5,1.67-2.32,2.29
		c-0.82,0.62-1.61,0.93-2.37,0.93c-0.59,0-1.12-0.2-1.61-0.6c-0.49-0.4-0.86-0.95-1.11-1.64c-0.92,1.49-2.09,2.24-3.49,2.24
		C360.14,138.72,359.26,138.32,358.6,137.52 M363.32,135.34c0.36-0.46,0.61-1.07,0.77-1.84l0.99-4.9c-0.75,0.02-1.43,0.3-2.06,0.84
		c-0.63,0.54-1.13,1.26-1.51,2.14c-0.37,0.89-0.56,1.83-0.56,2.82c0,0.55,0.11,0.96,0.33,1.23c0.22,0.27,0.53,0.4,0.92,0.4
		C362.59,136.03,362.97,135.8,363.32,135.34"/>
	<path class="st4" d="M370.95,137.65c-0.28-0.71-0.41-1.85-0.41-3.41c0-2.31,0.33-4.5,0.99-6.58c0.16-0.52,0.42-0.89,0.79-1.13
		c0.36-0.24,0.87-0.36,1.53-0.36c0.36,0,0.6,0.04,0.75,0.13c0.14,0.09,0.21,0.26,0.21,0.51c0,0.28-0.13,0.92-0.4,1.92
		c-0.18,0.71-0.32,1.33-0.43,1.87c-0.11,0.53-0.2,1.19-0.27,1.97c0.59-1.53,1.24-2.77,1.97-3.73c0.73-0.96,1.44-1.64,2.14-2.05
		c0.7-0.41,1.35-0.61,1.93-0.61c1.15,0,1.73,0.58,1.73,1.73c0,0.23-0.08,0.79-0.24,1.68c-0.14,0.71-0.21,1.16-0.21,1.33
		c0,0.62,0.22,0.93,0.67,0.93c0.5,0,1.14-0.39,1.92-1.17c0.23-0.23,0.47-0.35,0.72-0.35c0.23,0,0.41,0.1,0.55,0.31
		c0.13,0.2,0.2,0.48,0.2,0.81c0,0.66-0.18,1.17-0.53,1.55c-0.5,0.52-1.08,0.95-1.75,1.32c-0.67,0.36-1.37,0.55-2.12,0.55
		c-0.94,0-1.66-0.24-2.14-0.72c-0.49-0.48-0.73-1.13-0.73-1.95c0-0.27,0.03-0.53,0.08-0.8c0.04-0.36,0.05-0.6,0.05-0.72
		c0-0.28-0.1-0.43-0.29-0.43c-0.27,0-0.62,0.3-1.05,0.89c-0.44,0.6-0.87,1.38-1.29,2.36c-0.43,0.98-0.77,2.01-1.04,3.09
		c-0.2,0.83-0.42,1.4-0.68,1.69c-0.26,0.29-0.66,0.44-1.21,0.44C371.7,138.72,371.23,138.36,370.95,137.65"/>
	<path class="st4" d="M398.29,132.96c0.13,0.21,0.2,0.51,0.2,0.88c0,0.71-0.17,1.26-0.51,1.65c-0.73,0.89-1.53,1.65-2.4,2.28
		c-0.87,0.63-1.73,0.95-2.58,0.95c-1.35,0-2.38-0.79-3.09-2.37c-0.75,0.94-1.4,1.57-1.96,1.89c-0.56,0.32-1.21,0.48-1.96,0.48
		c-1.08,0-1.98-0.4-2.68-1.21c-0.7-0.81-1.05-1.86-1.05-3.16c0-1.42,0.3-2.74,0.91-3.96c0.6-1.22,1.43-2.21,2.49-2.98
		c1.06-0.77,2.24-1.23,3.56-1.37c0.34-3.45,0.98-6.39,1.93-8.83c0.95-2.44,2.2-3.66,3.74-3.66c0.76,0,1.4,0.35,1.91,1.04
		c0.51,0.69,0.76,1.74,0.76,3.14c0,1.99-0.49,4.32-1.47,6.98c-0.98,2.66-2.28,5.4-3.92,8.21c0.07,1.03,0.23,1.77,0.47,2.21
		c0.24,0.44,0.55,0.67,0.92,0.67c0.48,0,0.97-0.21,1.47-0.64c0.5-0.43,1.16-1.14,2-2.13c0.21-0.25,0.45-0.37,0.72-0.37
		C397.97,132.64,398.16,132.75,398.29,132.96 M387.94,135.62c0.34-0.28,0.76-0.79,1.28-1.53c-0.18-0.96-0.27-2.03-0.27-3.22
		c0-0.43,0.02-1.12,0.05-2.08c-0.98,0.3-1.79,0.95-2.44,1.96c-0.65,1-0.97,2.12-0.97,3.34c0,1.3,0.44,1.94,1.33,1.94
		C387.26,136.03,387.6,135.89,387.94,135.62 M393.59,117.95c-0.34,1.2-0.63,2.77-0.87,4.7c-0.24,1.94-0.41,3.96-0.52,6.07
		c1.99-4.33,2.98-7.82,2.98-10.44c0-0.67-0.06-1.2-0.17-1.57c-0.12-0.37-0.25-0.56-0.41-0.56
		C394.26,116.15,393.92,116.75,393.59,117.95"/>
	<path class="st4" d="M408.76,132.96c0.13,0.21,0.2,0.51,0.2,0.88c0,0.71-0.17,1.26-0.51,1.65c-0.66,0.8-1.59,1.54-2.78,2.21
		c-1.2,0.68-2.48,1.01-3.85,1.01c-1.86,0-3.31-0.51-4.34-1.52c-1.03-1.01-1.55-2.4-1.55-4.16c0-1.23,0.26-2.37,0.77-3.42
		c0.52-1.06,1.23-1.9,2.14-2.52c0.91-0.62,1.95-0.93,3.1-0.93c1.03,0,1.86,0.31,2.48,0.92c0.62,0.61,0.93,1.44,0.93,2.49
		c0,1.23-0.44,2.28-1.32,3.16c-0.88,0.88-2.37,1.58-4.46,2.09c0.44,0.82,1.29,1.23,2.53,1.23c0.8,0,1.71-0.28,2.73-0.84
		c1.02-0.56,1.91-1.29,2.65-2.2c0.21-0.25,0.45-0.37,0.72-0.37C408.45,132.64,408.63,132.75,408.76,132.96 M399.84,129.93
		c-0.45,0.76-0.68,1.69-0.68,2.77v0.05c1.05-0.25,1.87-0.62,2.48-1.12c0.6-0.5,0.91-1.07,0.91-1.73c0-0.34-0.09-0.61-0.28-0.81
		c-0.19-0.2-0.44-0.31-0.76-0.31C400.84,128.78,400.29,129.16,399.84,129.93"/>
	<path class="st4" d="M407.27,137.65c-0.28-0.71-0.41-1.85-0.41-3.41c0-2.31,0.33-4.5,0.99-6.58c0.16-0.52,0.42-0.89,0.79-1.13
		c0.36-0.24,0.87-0.36,1.53-0.36c0.36,0,0.6,0.04,0.75,0.13c0.14,0.09,0.21,0.26,0.21,0.51c0,0.28-0.13,0.92-0.4,1.92
		c-0.18,0.71-0.32,1.33-0.43,1.87c-0.11,0.53-0.2,1.19-0.27,1.97c0.59-1.53,1.24-2.77,1.97-3.73c0.73-0.96,1.44-1.64,2.14-2.05
		c0.7-0.41,1.35-0.61,1.93-0.61c0.57,0,1,0.15,1.29,0.44c0.29,0.29,0.44,0.72,0.44,1.29c0,0.46-0.1,1.33-0.29,2.61
		c-0.18,1.08-0.32,2.11-0.43,3.08c-0.11,0.97-0.16,2.05-0.16,3.24c0,0.68-0.14,1.16-0.41,1.45c-0.28,0.29-0.72,0.44-1.35,0.44
		c-0.59,0-1.01-0.15-1.28-0.45c-0.27-0.3-0.4-0.75-0.4-1.36c0-0.71,0.12-1.88,0.37-3.52c0.21-1.42,0.32-2.33,0.32-2.72
		c0-0.28-0.1-0.43-0.29-0.43c-0.23,0-0.56,0.3-0.97,0.89c-0.42,0.6-0.84,1.38-1.28,2.36c-0.44,0.98-0.79,2.01-1.05,3.09
		c-0.2,0.83-0.42,1.4-0.68,1.69c-0.26,0.29-0.66,0.44-1.21,0.44C408.02,138.72,407.54,138.36,407.27,137.65"/>
	<path class="st4" d="M354.05,71.38c2-0.52,4.11-0.77,6.28-0.68c1.95,0.08,3.82,0.42,5.59,0.99c1.6-5.16,1.88-12.53,0.45-20.45
		c-2.56-14.2-9.64-24.82-15.81-23.71c-6.17,1.11-9.1,13.53-6.54,27.73c0.16,0.87,0.33,1.73,0.52,2.57
		C349.17,62.4,352.49,67.22,354.05,71.38 M349.57,52.12c0.43-2.38,1.74-4.05,1.74-4.05c1.48-2.05,1.32,0.23,1.32,0.23l-0.05,1.53
		c-0.03,0.7,0.01,1.28,0.01,1.28c0.05,2.61,2.61,4.44,2.61,4.44c4.01,3.87,1.76,8.97,1.76,8.97c-0.58,2.35,0.55,1.81,0.55,1.81
		c0.34-0.34,0.92-2.55,0.92-2.55l0.26-1.05c0.4-1.52,0.16-3.4,0.16-3.4c-0.37-3.04-2.18-4.52-2.18-4.52
		c-0.67-0.49-1.4-1.42-1.4-1.42c-0.87-1.13-1.02-2.45-1.02-2.45c-0.22-1.19,0.14-4,0.14-4c0.12-0.87,1.09-0.76,1.09-0.76
		c1.5,0.19,2.87,1.29,2.87,1.29c2.77,1.87,4.14,5.86,4.14,5.86c1.19,3.09,1.18,5.26,1.18,5.26c0.37,5.88-2.14,8.45-2.14,8.45
		c-1.6,2.02-3.98,1.72-3.98,1.72c-3.22-0.25-5.65-4.21-5.65-4.21c-1.96-3.17-2.42-6.77-2.42-6.77
		C348.97,54.79,349.57,52.12,349.57,52.12"/>
	<path class="st4" d="M342.77,58.6c-1.1-1.04-2.27-2.07-3.5-3.07c-11.22-9.08-23.51-12.49-27.46-7.62
		c-3.94,4.87,1.95,16.19,13.17,25.27c0.47,0.38,0.94,0.75,1.42,1.11c6.1,0.98,11.39,2.82,15.12,5.12c1.98-2.56,4.54-4.66,7.47-6.1
		c1.13-0.56,2.32-1.02,3.56-1.37C350.91,67.81,347.49,63.07,342.77,58.6 M344.04,74.58c-2.6,1.91-7.02,0.5-7.02,0.5
		c-3.56-1.11-6.26-3.55-6.26-3.55c-2.33-1.94-3.62-4.35-3.62-4.35c-1.23-2.08-1.33-4.2-1.33-4.2c-0.21-2.52,1.15-0.69,1.15-0.69
		l0.96,1.19c0.44,0.55,0.85,0.96,0.85,0.96c1.75,1.94,4.87,1.66,4.87,1.66c5.57,0.31,7.2,5.64,7.2,5.64c1.1,2.16,1.6,1.01,1.6,1.01
		c0.03-0.48-0.97-2.53-0.97-2.53l-0.49-0.97c-0.69-1.41-2.1-2.68-2.1-2.68c-2.27-2.06-4.61-1.99-4.61-1.99
		c-0.83,0.07-1.99-0.16-1.99-0.16c-1.4-0.29-2.37-1.19-2.37-1.19c-0.94-0.76-2.51-3.12-2.51-3.12c-0.48-0.74,0.33-1.29,0.33-1.29
		c1.26-0.84,3.01-0.9,3.01-0.9c3.32-0.39,6.96,1.73,6.96,1.73c2.92,1.56,4.33,3.21,4.33,3.21c4.12,4.21,3.9,7.8,3.9,7.8
		C346.05,73.25,344.04,74.58,344.04,74.58"/>
	<path class="st4" d="M340.63,80.7c-3.78-2.22-9.11-3.97-15.22-4.82c-1.35-0.19-2.73-0.34-4.15-0.44
		c-14.4-1.01-26.43,3.24-26.87,9.49c-0.42,5.97,9.88,11.61,23.34,12.99c0.37-0.12,0.73-0.25,1.11-0.36
		c6.45-2.05,12.67-2.85,17.65-2.51c-0.04-0.54-0.07-1.09-0.07-1.64c0-3.75,0.97-7.27,2.67-10.33
		C339.56,82.26,340.07,81.46,340.63,80.7 M336.09,88.32c-1.03,3.06-5.47,4.44-5.47,4.44c-3.55,1.12-7.16,0.68-7.16,0.68
		c-3.02-0.25-5.46-1.49-5.46-1.49c-2.21-1-3.5-2.68-3.5-2.68c-1.62-1.94,0.54-1.22,0.54-1.22l1.47,0.42c0.67,0.2,1.24,0.3,1.24,0.3
		c2.54,0.59,4.94-1.44,4.94-1.44c4.74-2.93,9.13,0.5,9.13,0.5c2.14,1.14,1.89-0.09,1.89-0.09c-0.25-0.41-2.24-1.52-2.24-1.52
		l-0.95-0.51c-1.37-0.76-3.26-0.99-3.26-0.99c-3.04-0.39-4.92,1-4.92,1c-0.64,0.53-1.72,1.01-1.72,1.01
		c-1.31,0.56-2.63,0.38-2.63,0.38c-1.21-0.08-3.85-1.12-3.85-1.12c-0.82-0.33-0.46-1.24-0.46-1.24c0.55-1.41,1.96-2.46,1.96-2.46
		c2.49-2.22,6.69-2.57,6.69-2.57c3.29-0.4,5.39,0.15,5.39,0.15c5.79,1.09,7.66,4.15,7.66,4.15
		C336.96,86.08,336.09,88.32,336.09,88.32"/>
	<path class="st4" d="M336.83,98.63c-0.09-0.51-0.15-1.03-0.21-1.55c-4.99-0.23-11.18,0.71-17.59,2.91
		c-0.37,0.13-0.73,0.26-1.1,0.39c-13.06,4.76-21.92,13.06-19.94,18.83c2.03,5.93,14.75,6.94,28.4,2.26
		c7.58-2.6,13.85-6.41,17.59-10.3C340.3,108.02,337.7,103.63,336.83,98.63 M334.4,112.29c-2.83,2.42-6.33,3.42-6.33,3.42
		c-2.88,0.95-5.61,0.76-5.61,0.76c-2.42-0.06-4.27-1.11-4.27-1.11c-2.25-1.16,0.03-1.34,0.03-1.34l1.52-0.18
		c0.7-0.08,1.26-0.2,1.26-0.2c2.57-0.45,3.99-3.25,3.99-3.25c3.22-4.55,8.6-3.1,8.6-3.1c2.42,0.22,1.71-0.82,1.71-0.82
		c-0.39-0.28-2.66-0.53-2.66-0.53l-1.08-0.1c-1.56-0.16-3.39,0.36-3.39,0.36c-2.95,0.83-4.14,2.84-4.14,2.84
		c-0.38,0.73-1.19,1.6-1.19,1.6c-0.99,1.03-2.27,1.38-2.27,1.38c-1.14,0.4-3.98,0.47-3.98,0.47c-0.88,0.01-0.91-0.97-0.91-0.97
		c-0.04-1.51,0.84-3.03,0.84-3.03c1.43-3.02,5.16-4.98,5.16-4.98c2.87-1.65,5.02-1.97,5.02-1.97c5.75-1.25,8.68,0.84,8.68,0.84
		c2.23,1.27,2.3,3.68,2.3,3.68C337.94,109.29,334.4,112.29,334.4,112.29"/>
	<path class="st4" d="M363.46,78.32c-1.12-0.25-2.28-0.38-3.47-0.38c-1.76,0-3.46,0.29-5.04,0.81c-0.33,0.11-0.66,0.23-0.99,0.36
		c-2.81,1.14-5.22,3.05-6.98,5.47c0.06,0.07,0.11,0.13,0.16,0.2c-0.1,0-0.2-0.01-0.29-0.02c-1.84,2.61-2.92,5.8-2.92,9.23
		c0,0.39,0.02,0.77,0.05,1.15c0.04,0.5,0.09,1,0.17,1.48c0.58,3.52,2.3,6.65,4.77,9c2.88,2.74,6.78,4.43,11.07,4.43
		c8.87,0,16.06-7.19,16.06-16.06C376.04,86.32,370.66,79.91,363.46,78.32"/>
	<path class="st4" d="M385.72,106.58l-6.17-4.07c1.14-2.61,1.77-5.49,1.77-8.51c0-9.83-6.65-18.1-15.7-20.57
		c-1.79-0.49-3.68-0.76-5.63-0.76c-2.17,0-4.27,0.33-6.25,0.93c-1.23,0.38-2.41,0.86-3.53,1.44c-2.9,1.5-5.42,3.64-7.35,6.24
		c-0.56,0.76-1.07,1.55-1.53,2.38c-1.7,3.06-2.67,6.58-2.67,10.33c0,0.55,0.03,1.1,0.07,1.64c0.04,0.52,0.09,1.04,0.17,1.55
		c0.75,5.02,3.26,9.47,6.87,12.7c3.77,3.38,8.76,5.44,14.22,5.44c6.46,0,12.24-2.87,16.15-7.41l6.06,4
		c1.47,0.97,3.46,0.56,4.43-0.91C387.59,109.54,387.18,107.55,385.72,106.58 M376.35,101.95c-0.58,1.18-1.28,2.29-2.09,3.32
		c-3.33,4.22-8.49,6.93-14.28,6.93c-4.68,0-8.95-1.77-12.18-4.68c-3.19-2.88-5.36-6.88-5.88-11.38c0-0.03-0.01-0.05-0.01-0.08
		c-0.08-0.67-0.12-1.36-0.12-2.05c0-3.5,0.99-6.76,2.7-9.53c0.3-0.48,0.61-0.94,0.95-1.39c1.77-2.36,4.11-4.27,6.81-5.54
		c0.79-0.37,1.61-0.69,2.46-0.95c1.67-0.51,3.45-0.78,5.29-0.78c1.58,0,3.12,0.2,4.58,0.58c7.83,2.03,13.61,9.15,13.61,17.61
		C378.18,96.85,377.52,99.54,376.35,101.95"/>
	<text transform="matrix(1 0 0 1 354.7949 151.4307)" class="st4 st5 st6">coffee</text>
	<path class="st4" d="M417.31,147.47h-13.77c-0.27,0-0.49-0.22-0.49-0.49v-0.78c0-0.27,0.22-0.49,0.49-0.49h13.77
		c0.27,0,0.49,0.22,0.49,0.49v0.78C417.81,147.25,417.58,147.47,417.31,147.47"/>
	<path class="st4" d="M352.09,147.47h-14.54c-0.27,0-0.49-0.22-0.49-0.49v-0.78c0-0.27,0.22-0.49,0.49-0.49h14.54
		c0.27,0,0.49,0.22,0.49,0.49v0.78C352.58,147.25,352.36,147.47,352.09,147.47"/>
</g>
<g>
	<path class="st4" d="M113.75,310.61l0.08-0.51c-1.4,0.59-2.78,0.88-4.13,0.88c-1.99,0-3.74-0.39-5.25-1.16
		c-1.51-0.77-2.68-1.87-3.52-3.29c-0.84-1.42-1.25-3.07-1.25-4.96c0-2.63,0.5-4.95,1.49-6.97c0.99-2.02,2.37-3.58,4.12-4.69
		c1.75-1.11,3.71-1.66,5.87-1.66c2.08,0,3.64,0.48,4.68,1.45c1.04,0.97,1.56,2.25,1.56,3.85c0,1.05-0.19,1.89-0.57,2.52
		c-0.38,0.63-0.93,0.95-1.64,0.95c-0.48,0-0.87-0.12-1.16-0.35c-0.29-0.23-0.44-0.55-0.44-0.96c0-0.18,0.04-0.48,0.11-0.91
		c0.11-0.5,0.16-0.89,0.16-1.17c0-0.75-0.23-1.32-0.68-1.73c-0.45-0.41-1.21-0.61-2.28-0.61c-1.3,0-2.5,0.37-3.61,1.12
		c-1.11,0.75-2,1.86-2.68,3.34c-0.68,1.48-1.01,3.26-1.01,5.34c0,2.13,0.58,3.78,1.75,4.94c1.16,1.16,2.85,1.75,5.05,1.75
		c1.23,0,2.5-0.28,3.84-0.83l0.37-3.25h-2.72c-0.5,0-0.88-0.12-1.15-0.36c-0.27-0.24-0.4-0.63-0.4-1.19c0-0.5,0.13-0.89,0.4-1.17
		c0.27-0.28,0.62-0.43,1.07-0.43h4.98c0.39,0,0.71,0.13,0.97,0.39c0.26,0.26,0.36,0.63,0.31,1.11c-0.05,0.57-0.23,1.86-0.53,3.86
		l-0.29,2.02c1.42-1.07,2.72-1.99,3.89-2.77c0.23-0.14,0.44-0.21,0.61-0.21c0.23,0,0.41,0.11,0.55,0.33c0.13,0.22,0.2,0.5,0.2,0.84
		c0,0.41-0.06,0.73-0.19,0.96c-0.12,0.23-0.32,0.44-0.59,0.61c-1.05,0.69-2.72,1.83-5.01,3.41c0,0-0.75,0.49-1.65,0.48
		C115.06,311.59,113.61,311.63,113.75,310.61"/>
	<path class="st4" d="M121.24,309.78c-0.66-0.8-0.99-1.85-0.99-3.14c0-1.42,0.33-2.77,0.99-4.04c0.66-1.27,1.53-2.29,2.62-3.06
		c1.09-0.77,2.25-1.16,3.48-1.16c0.39,0,0.65,0.08,0.79,0.23c0.13,0.15,0.24,0.42,0.33,0.81c0.37-0.07,0.76-0.11,1.17-0.11
		c0.87,0,1.31,0.31,1.31,0.93c0,0.37-0.13,1.26-0.4,2.66c-0.41,2.04-0.61,3.46-0.61,4.26c0,0.27,0.07,0.48,0.2,0.64
		c0.13,0.16,0.31,0.24,0.52,0.24c0.34,0,0.75-0.22,1.23-0.65c0.48-0.43,1.13-1.14,1.94-2.12c0.21-0.25,0.45-0.37,0.72-0.37
		c0.23,0,0.41,0.11,0.55,0.32c0.13,0.21,0.2,0.51,0.2,0.88c0,0.71-0.17,1.26-0.51,1.65c-0.73,0.91-1.5,1.67-2.32,2.29
		c-0.82,0.62-1.61,0.93-2.37,0.93c-0.59,0-1.12-0.2-1.61-0.6c-0.49-0.4-0.86-0.95-1.11-1.64c-0.92,1.49-2.09,2.24-3.49,2.24
		C122.78,310.98,121.9,310.58,121.24,309.78 M125.96,307.59c0.36-0.46,0.61-1.07,0.77-1.84l0.99-4.9c-0.75,0.02-1.43,0.3-2.06,0.84
		c-0.63,0.54-1.13,1.26-1.51,2.14c-0.37,0.89-0.56,1.83-0.56,2.82c0,0.55,0.11,0.96,0.33,1.23c0.22,0.27,0.53,0.4,0.92,0.4
		C125.23,308.29,125.6,308.06,125.96,307.59"/>
	<path class="st4" d="M133.59,309.91c-0.28-0.71-0.41-1.85-0.41-3.41c0-2.31,0.33-4.5,0.99-6.58c0.16-0.52,0.42-0.89,0.79-1.13
		c0.36-0.24,0.87-0.36,1.53-0.36c0.36,0,0.6,0.04,0.75,0.13c0.14,0.09,0.21,0.26,0.21,0.51c0,0.28-0.13,0.92-0.4,1.92
		c-0.18,0.71-0.32,1.33-0.43,1.87c-0.11,0.53-0.2,1.19-0.27,1.97c0.59-1.53,1.24-2.77,1.97-3.73c0.73-0.96,1.44-1.64,2.14-2.05
		c0.7-0.41,1.35-0.61,1.93-0.61c1.15,0,1.73,0.58,1.73,1.73c0,0.23-0.08,0.79-0.24,1.68c-0.14,0.71-0.21,1.16-0.21,1.33
		c0,0.62,0.22,0.93,0.67,0.93c0.5,0,1.14-0.39,1.92-1.17c0.23-0.23,0.47-0.35,0.72-0.35c0.23,0,0.41,0.1,0.55,0.31
		c0.13,0.2,0.2,0.48,0.2,0.81c0,0.66-0.18,1.17-0.53,1.55c-0.5,0.52-1.08,0.95-1.75,1.32c-0.67,0.36-1.37,0.55-2.12,0.55
		c-0.94,0-1.66-0.24-2.14-0.72c-0.49-0.48-0.73-1.13-0.73-1.95c0-0.27,0.03-0.53,0.08-0.8c0.04-0.36,0.05-0.6,0.05-0.72
		c0-0.28-0.1-0.43-0.29-0.43c-0.27,0-0.62,0.3-1.05,0.89c-0.44,0.6-0.87,1.38-1.29,2.36c-0.43,0.98-0.77,2.01-1.04,3.09
		c-0.2,0.83-0.42,1.4-0.68,1.69c-0.26,0.29-0.66,0.44-1.21,0.44C134.34,310.98,133.86,310.62,133.59,309.91"/>
	<path class="st4" d="M160.93,305.22c0.13,0.21,0.2,0.51,0.2,0.88c0,0.71-0.17,1.26-0.51,1.65c-0.73,0.89-1.53,1.65-2.4,2.28
		c-0.87,0.63-1.73,0.95-2.58,0.95c-1.35,0-2.38-0.79-3.09-2.37c-0.75,0.94-1.4,1.57-1.96,1.89c-0.56,0.32-1.21,0.48-1.96,0.48
		c-1.08,0-1.98-0.4-2.68-1.21c-0.7-0.81-1.05-1.86-1.05-3.16c0-1.42,0.3-2.74,0.91-3.96c0.6-1.22,1.43-2.21,2.49-2.98
		c1.06-0.77,2.24-1.23,3.56-1.37c0.34-3.45,0.98-6.39,1.93-8.83c0.95-2.44,2.2-3.66,3.74-3.66c0.76,0,1.4,0.35,1.91,1.04
		c0.51,0.69,0.76,1.74,0.76,3.14c0,1.99-0.49,4.32-1.47,6.98c-0.98,2.66-2.28,5.4-3.92,8.21c0.07,1.03,0.23,1.77,0.47,2.21
		c0.24,0.44,0.55,0.67,0.92,0.67c0.48,0,0.97-0.21,1.47-0.64c0.5-0.43,1.16-1.14,2-2.13c0.21-0.25,0.45-0.37,0.72-0.37
		C160.61,304.9,160.79,305.01,160.93,305.22 M150.57,307.87c0.34-0.28,0.76-0.79,1.28-1.53c-0.18-0.96-0.27-2.03-0.27-3.22
		c0-0.43,0.02-1.12,0.05-2.08c-0.98,0.3-1.79,0.95-2.44,1.96c-0.65,1-0.97,2.12-0.97,3.34c0,1.3,0.44,1.94,1.33,1.94
		C149.9,308.29,150.24,308.15,150.57,307.87 M156.22,290.21c-0.34,1.2-0.63,2.77-0.87,4.7c-0.24,1.94-0.41,3.96-0.52,6.07
		c1.99-4.33,2.98-7.82,2.98-10.44c0-0.67-0.06-1.2-0.17-1.57c-0.12-0.37-0.25-0.56-0.41-0.56
		C156.9,288.41,156.56,289.01,156.22,290.21"/>
	<path class="st4" d="M171.4,305.22c0.13,0.21,0.2,0.51,0.2,0.88c0,0.71-0.17,1.26-0.51,1.65c-0.66,0.8-1.59,1.54-2.78,2.21
		c-1.2,0.68-2.48,1.01-3.85,1.01c-1.86,0-3.31-0.51-4.34-1.52c-1.03-1.01-1.55-2.4-1.55-4.16c0-1.23,0.26-2.37,0.77-3.42
		c0.52-1.06,1.23-1.9,2.14-2.52c0.91-0.62,1.95-0.93,3.1-0.93c1.03,0,1.86,0.31,2.48,0.92c0.62,0.61,0.93,1.44,0.93,2.49
		c0,1.23-0.44,2.28-1.32,3.16c-0.88,0.88-2.37,1.58-4.46,2.09c0.44,0.82,1.29,1.23,2.53,1.23c0.8,0,1.71-0.28,2.73-0.84
		c1.02-0.56,1.91-1.29,2.65-2.2c0.21-0.25,0.45-0.37,0.72-0.37C171.08,304.9,171.26,305.01,171.4,305.22 M162.47,302.19
		c-0.45,0.76-0.68,1.69-0.68,2.77v0.05c1.05-0.25,1.87-0.62,2.48-1.12c0.6-0.5,0.91-1.07,0.91-1.73c0-0.34-0.09-0.61-0.28-0.81
		c-0.19-0.2-0.44-0.31-0.76-0.31C163.48,301.04,162.92,301.42,162.47,302.19"/>
	<path class="st4" d="M169.9,309.91c-0.28-0.71-0.41-1.85-0.41-3.41c0-2.31,0.33-4.5,0.99-6.58c0.16-0.52,0.42-0.89,0.79-1.13
		c0.36-0.24,0.87-0.36,1.53-0.36c0.36,0,0.6,0.04,0.75,0.13c0.14,0.09,0.21,0.26,0.21,0.51c0,0.28-0.13,0.92-0.4,1.92
		c-0.18,0.71-0.32,1.33-0.43,1.87c-0.11,0.53-0.2,1.19-0.27,1.97c0.59-1.53,1.24-2.77,1.97-3.73c0.73-0.96,1.44-1.64,2.14-2.05
		c0.7-0.41,1.35-0.61,1.93-0.61c0.57,0,1,0.15,1.29,0.44c0.29,0.29,0.44,0.72,0.44,1.29c0,0.46-0.1,1.33-0.29,2.61
		c-0.18,1.08-0.32,2.11-0.43,3.08c-0.11,0.97-0.16,2.05-0.16,3.24c0,0.68-0.14,1.16-0.41,1.45c-0.28,0.29-0.72,0.44-1.35,0.44
		c-0.59,0-1.01-0.15-1.28-0.45c-0.27-0.3-0.4-0.75-0.4-1.36c0-0.71,0.12-1.88,0.37-3.52c0.21-1.42,0.32-2.33,0.32-2.72
		c0-0.28-0.1-0.43-0.29-0.43c-0.23,0-0.56,0.3-0.97,0.89c-0.42,0.6-0.84,1.38-1.28,2.36c-0.44,0.98-0.79,2.01-1.05,3.09
		c-0.2,0.83-0.42,1.4-0.68,1.69c-0.26,0.29-0.66,0.44-1.21,0.44C170.65,310.98,170.18,310.62,169.9,309.91"/>
	<path class="st4" d="M116.68,243.64c2-0.52,4.11-0.77,6.28-0.68c1.95,0.08,3.82,0.42,5.59,0.99c1.6-5.16,1.88-12.53,0.45-20.45
		c-2.56-14.2-9.64-24.82-15.81-23.71c-6.17,1.11-9.1,13.53-6.54,27.73c0.16,0.87,0.33,1.73,0.52,2.57
		C111.8,234.66,115.12,239.48,116.68,243.64 M112.21,224.38c0.43-2.38,1.74-4.05,1.74-4.05c1.48-2.05,1.32,0.23,1.32,0.23
		l-0.05,1.53c-0.03,0.7,0.01,1.28,0.01,1.28c0.05,2.61,2.61,4.44,2.61,4.44c4.01,3.87,1.76,8.97,1.76,8.97
		c-0.58,2.35,0.55,1.81,0.55,1.81c0.34-0.34,0.92-2.55,0.92-2.55l0.26-1.05c0.4-1.52,0.16-3.4,0.16-3.4
		c-0.37-3.04-2.18-4.52-2.18-4.52c-0.67-0.49-1.4-1.42-1.4-1.42c-0.87-1.13-1.02-2.45-1.02-2.45c-0.22-1.19,0.14-4,0.14-4
		c0.12-0.87,1.09-0.76,1.09-0.76c1.5,0.19,2.87,1.29,2.87,1.29c2.77,1.87,4.14,5.86,4.14,5.86c1.19,3.09,1.18,5.26,1.18,5.26
		c0.37,5.88-2.14,8.45-2.14,8.45c-1.6,2.02-3.98,1.72-3.98,1.72c-3.22-0.25-5.65-4.21-5.65-4.21c-1.96-3.17-2.42-6.77-2.42-6.77
		C111.61,227.05,112.21,224.38,112.21,224.38"/>
	<path class="st4" d="M105.41,230.86c-1.1-1.04-2.27-2.07-3.5-3.07c-11.22-9.08-23.51-12.49-27.46-7.62
		c-3.94,4.87,1.95,16.19,13.17,25.27c0.47,0.38,0.94,0.75,1.42,1.11c6.1,0.98,11.39,2.82,15.12,5.12c1.98-2.56,4.54-4.66,7.47-6.1
		c1.13-0.56,2.32-1.02,3.56-1.37C113.54,240.07,110.12,235.32,105.41,230.86 M106.68,246.84c-2.6,1.91-7.02,0.5-7.02,0.5
		c-3.56-1.11-6.26-3.55-6.26-3.55c-2.33-1.94-3.62-4.35-3.62-4.35c-1.23-2.08-1.33-4.2-1.33-4.2c-0.21-2.52,1.15-0.69,1.15-0.69
		l0.96,1.19c0.44,0.55,0.85,0.96,0.85,0.96c1.75,1.94,4.87,1.66,4.87,1.66c5.57,0.31,7.2,5.64,7.2,5.64c1.1,2.16,1.6,1.01,1.6,1.01
		c0.03-0.48-0.97-2.53-0.97-2.53l-0.49-0.97c-0.69-1.41-2.1-2.68-2.1-2.68c-2.27-2.06-4.61-1.99-4.61-1.99
		c-0.83,0.07-1.99-0.16-1.99-0.16c-1.4-0.29-2.37-1.19-2.37-1.19c-0.94-0.76-2.51-3.12-2.51-3.12c-0.48-0.74,0.33-1.29,0.33-1.29
		c1.26-0.84,3.01-0.9,3.01-0.9c3.32-0.39,6.96,1.73,6.96,1.73c2.92,1.56,4.33,3.21,4.33,3.21c4.12,4.21,3.9,7.8,3.9,7.8
		C108.68,245.5,106.68,246.84,106.68,246.84"/>
	<path class="st4" d="M103.27,252.96c-3.78-2.22-9.11-3.97-15.22-4.82c-1.35-0.19-2.73-0.34-4.15-0.44
		c-14.4-1.01-26.43,3.24-26.87,9.49c-0.42,5.97,9.88,11.61,23.34,12.99c0.37-0.12,0.73-0.25,1.11-0.36
		c6.45-2.05,12.67-2.85,17.65-2.51c-0.04-0.54-0.07-1.09-0.07-1.64c0-3.75,0.97-7.27,2.67-10.33
		C102.19,254.52,102.7,253.72,103.27,252.96 M98.72,260.58c-1.03,3.06-5.47,4.44-5.47,4.44c-3.55,1.12-7.16,0.68-7.16,0.68
		c-3.02-0.25-5.46-1.49-5.46-1.49c-2.21-1-3.5-2.68-3.5-2.68c-1.62-1.94,0.54-1.22,0.54-1.22l1.47,0.42c0.67,0.2,1.24,0.3,1.24,0.3
		c2.54,0.59,4.94-1.44,4.94-1.44c4.74-2.93,9.13,0.5,9.13,0.5c2.14,1.14,1.89-0.09,1.89-0.09c-0.25-0.41-2.24-1.52-2.24-1.52
		l-0.95-0.51c-1.37-0.76-3.26-0.99-3.26-0.99c-3.04-0.39-4.92,1-4.92,1c-0.64,0.53-1.72,1.01-1.72,1.01
		c-1.31,0.56-2.63,0.38-2.63,0.38c-1.21-0.08-3.85-1.12-3.85-1.12c-0.82-0.33-0.46-1.24-0.46-1.24c0.55-1.41,1.96-2.46,1.96-2.46
		c2.49-2.22,6.69-2.57,6.69-2.57c3.29-0.4,5.39,0.15,5.39,0.15c5.79,1.09,7.66,4.15,7.66,4.15
		C99.6,258.34,98.72,260.58,98.72,260.58"/>
	<path class="st4" d="M99.46,270.89c-0.09-0.51-0.15-1.03-0.21-1.55c-4.99-0.23-11.18,0.71-17.59,2.91
		c-0.37,0.13-0.73,0.26-1.1,0.39c-13.06,4.76-21.92,13.06-19.94,18.83c2.03,5.93,14.75,6.94,28.4,2.26
		c7.58-2.6,13.85-6.41,17.59-10.3C102.94,280.28,100.33,275.89,99.46,270.89 M97.03,284.55c-2.83,2.42-6.33,3.42-6.33,3.42
		c-2.88,0.95-5.61,0.76-5.61,0.76c-2.42-0.06-4.27-1.11-4.27-1.11c-2.25-1.16,0.03-1.34,0.03-1.34l1.52-0.18
		c0.7-0.08,1.26-0.2,1.26-0.2c2.57-0.45,3.99-3.25,3.99-3.25c3.22-4.55,8.6-3.1,8.6-3.1c2.42,0.22,1.71-0.82,1.71-0.82
		c-0.39-0.28-2.66-0.53-2.66-0.53l-1.08-0.1c-1.56-0.16-3.39,0.36-3.39,0.36c-2.95,0.83-4.14,2.84-4.14,2.84
		c-0.38,0.73-1.19,1.6-1.19,1.6c-0.99,1.03-2.27,1.38-2.27,1.38c-1.14,0.4-3.98,0.47-3.98,0.47c-0.88,0.01-0.91-0.97-0.91-0.97
		c-0.04-1.51,0.84-3.03,0.84-3.03c1.43-3.02,5.16-4.98,5.16-4.98c2.87-1.65,5.02-1.97,5.02-1.97c5.75-1.25,8.68,0.84,8.68,0.84
		c2.23,1.27,2.3,3.68,2.3,3.68C100.58,281.55,97.03,284.55,97.03,284.55"/>
	<path class="st4" d="M126.09,250.58c-1.12-0.25-2.28-0.38-3.47-0.38c-1.76,0-3.46,0.29-5.04,0.81c-0.33,0.11-0.66,0.23-0.99,0.36
		c-2.81,1.14-5.22,3.05-6.98,5.47c0.06,0.07,0.11,0.13,0.16,0.2c-0.1,0-0.2-0.01-0.29-0.02c-1.84,2.61-2.92,5.8-2.92,9.23
		c0,0.39,0.02,0.77,0.05,1.15c0.04,0.5,0.09,1,0.17,1.48c0.58,3.52,2.3,6.65,4.77,9c2.88,2.74,6.78,4.43,11.07,4.43
		c8.87,0,16.06-7.19,16.06-16.06C138.68,258.58,133.29,252.17,126.09,250.58"/>
	<path class="st4" d="M148.35,278.84l-6.17-4.07c1.14-2.61,1.77-5.49,1.77-8.51c0-9.83-6.65-18.1-15.7-20.57
		c-1.79-0.49-3.68-0.76-5.63-0.76c-2.17,0-4.27,0.33-6.25,0.93c-1.23,0.38-2.41,0.86-3.53,1.44c-2.9,1.5-5.42,3.64-7.35,6.24
		c-0.56,0.76-1.07,1.55-1.53,2.38c-1.7,3.06-2.67,6.58-2.67,10.33c0,0.55,0.03,1.1,0.07,1.64c0.04,0.52,0.09,1.04,0.17,1.55
		c0.75,5.02,3.26,9.47,6.87,12.7c3.77,3.38,8.76,5.44,14.22,5.44c6.46,0,12.24-2.87,16.15-7.41l6.06,4
		c1.47,0.97,3.46,0.56,4.43-0.91C150.23,281.8,149.82,279.81,148.35,278.84 M138.99,274.21c-0.58,1.18-1.28,2.29-2.09,3.32
		c-3.33,4.22-8.49,6.93-14.28,6.93c-4.68,0-8.95-1.77-12.18-4.68c-3.19-2.88-5.36-6.88-5.88-11.38c0-0.03-0.01-0.05-0.01-0.08
		c-0.08-0.67-0.12-1.36-0.12-2.05c0-3.5,0.99-6.76,2.7-9.53c0.3-0.48,0.61-0.94,0.95-1.39c1.77-2.36,4.11-4.27,6.81-5.54
		c0.79-0.37,1.61-0.69,2.46-0.95c1.67-0.51,3.45-0.78,5.29-0.78c1.58,0,3.12,0.2,4.58,0.58c7.83,2.03,13.61,9.15,13.61,17.61
		C140.81,269.11,140.16,271.8,138.99,274.21"/>
	<text transform="matrix(1 0 0 1 117.43 323.6902)" class="st4 st5 st6">coffee</text>
	<path class="st4" d="M179.95,319.73h-13.77c-0.27,0-0.49-0.22-0.49-0.49v-0.78c0-0.27,0.22-0.49,0.49-0.49h13.77
		c0.27,0,0.49,0.22,0.49,0.49v0.78C180.44,319.51,180.22,319.73,179.95,319.73"/>
	<path class="st4" d="M114.72,319.73h-14.54c-0.27,0-0.49-0.22-0.49-0.49v-0.78c0-0.27,0.22-0.49,0.49-0.49h14.54
		c0.27,0,0.49,0.22,0.49,0.49v0.78C115.21,319.51,114.99,319.73,114.72,319.73"/>
</g>
<g>
	<path class="st4" d="M351.12,310.61l0.08-0.51c-1.4,0.59-2.78,0.88-4.13,0.88c-1.99,0-3.74-0.39-5.25-1.16
		c-1.51-0.77-2.68-1.87-3.52-3.29c-0.84-1.42-1.25-3.07-1.25-4.96c0-2.63,0.5-4.95,1.49-6.97c0.99-2.02,2.37-3.58,4.12-4.69
		c1.75-1.11,3.71-1.66,5.87-1.66c2.08,0,3.64,0.48,4.68,1.45c1.04,0.97,1.56,2.25,1.56,3.85c0,1.05-0.19,1.89-0.57,2.52
		c-0.38,0.63-0.93,0.95-1.64,0.95c-0.48,0-0.87-0.12-1.16-0.35c-0.29-0.23-0.44-0.55-0.44-0.96c0-0.18,0.04-0.48,0.11-0.91
		c0.11-0.5,0.16-0.89,0.16-1.17c0-0.75-0.23-1.32-0.68-1.73c-0.45-0.41-1.21-0.61-2.28-0.61c-1.3,0-2.5,0.37-3.61,1.12
		c-1.11,0.75-2,1.86-2.68,3.34c-0.68,1.48-1.01,3.26-1.01,5.34c0,2.13,0.58,3.78,1.75,4.94c1.16,1.16,2.85,1.75,5.05,1.75
		c1.23,0,2.5-0.28,3.84-0.83l0.37-3.25h-2.72c-0.5,0-0.88-0.12-1.15-0.36c-0.27-0.24-0.4-0.63-0.4-1.19c0-0.5,0.13-0.89,0.4-1.17
		c0.27-0.28,0.62-0.43,1.07-0.43h4.98c0.39,0,0.71,0.13,0.97,0.39c0.26,0.26,0.36,0.63,0.31,1.11c-0.05,0.57-0.23,1.86-0.53,3.86
		l-0.29,2.02c1.42-1.07,2.72-1.99,3.89-2.77c0.23-0.14,0.44-0.21,0.61-0.21c0.23,0,0.41,0.11,0.55,0.33c0.13,0.22,0.2,0.5,0.2,0.84
		c0,0.41-0.06,0.73-0.19,0.96c-0.12,0.23-0.32,0.44-0.59,0.61c-1.05,0.69-2.72,1.83-5.01,3.41c0,0-0.75,0.49-1.65,0.48
		C352.43,311.59,350.98,311.63,351.12,310.61"/>
	<path class="st4" d="M358.6,309.78c-0.66-0.8-0.99-1.85-0.99-3.14c0-1.42,0.33-2.77,0.99-4.04c0.66-1.27,1.53-2.29,2.62-3.06
		c1.09-0.77,2.25-1.16,3.48-1.16c0.39,0,0.65,0.08,0.79,0.23c0.13,0.15,0.24,0.42,0.33,0.81c0.37-0.07,0.76-0.11,1.17-0.11
		c0.87,0,1.31,0.31,1.31,0.93c0,0.37-0.13,1.26-0.4,2.66c-0.41,2.04-0.61,3.46-0.61,4.26c0,0.27,0.07,0.48,0.2,0.64
		c0.13,0.16,0.31,0.24,0.52,0.24c0.34,0,0.75-0.22,1.23-0.65c0.48-0.43,1.13-1.14,1.94-2.12c0.21-0.25,0.45-0.37,0.72-0.37
		c0.23,0,0.41,0.11,0.55,0.32c0.13,0.21,0.2,0.51,0.2,0.88c0,0.71-0.17,1.26-0.51,1.65c-0.73,0.91-1.5,1.67-2.32,2.29
		c-0.82,0.62-1.61,0.93-2.37,0.93c-0.59,0-1.12-0.2-1.61-0.6c-0.49-0.4-0.86-0.95-1.11-1.64c-0.92,1.49-2.09,2.24-3.49,2.24
		C360.14,310.98,359.26,310.58,358.6,309.78 M363.32,307.59c0.36-0.46,0.61-1.07,0.77-1.84l0.99-4.9c-0.75,0.02-1.43,0.3-2.06,0.84
		c-0.63,0.54-1.13,1.26-1.51,2.14c-0.37,0.89-0.56,1.83-0.56,2.82c0,0.55,0.11,0.96,0.33,1.23c0.22,0.27,0.53,0.4,0.92,0.4
		C362.59,308.29,362.97,308.06,363.32,307.59"/>
	<path class="st4" d="M370.95,309.91c-0.28-0.71-0.41-1.85-0.41-3.41c0-2.31,0.33-4.5,0.99-6.58c0.16-0.52,0.42-0.89,0.79-1.13
		c0.36-0.24,0.87-0.36,1.53-0.36c0.36,0,0.6,0.04,0.75,0.13c0.14,0.09,0.21,0.26,0.21,0.51c0,0.28-0.13,0.92-0.4,1.92
		c-0.18,0.71-0.32,1.33-0.43,1.87c-0.11,0.53-0.2,1.19-0.27,1.97c0.59-1.53,1.24-2.77,1.97-3.73c0.73-0.96,1.44-1.64,2.14-2.05
		c0.7-0.41,1.35-0.61,1.93-0.61c1.15,0,1.73,0.58,1.73,1.73c0,0.23-0.08,0.79-0.24,1.68c-0.14,0.71-0.21,1.16-0.21,1.33
		c0,0.62,0.22,0.93,0.67,0.93c0.5,0,1.14-0.39,1.92-1.17c0.23-0.23,0.47-0.35,0.72-0.35c0.23,0,0.41,0.1,0.55,0.31
		c0.13,0.2,0.2,0.48,0.2,0.81c0,0.66-0.18,1.17-0.53,1.55c-0.5,0.52-1.08,0.95-1.75,1.32c-0.67,0.36-1.37,0.55-2.12,0.55
		c-0.94,0-1.66-0.24-2.14-0.72c-0.49-0.48-0.73-1.13-0.73-1.95c0-0.27,0.03-0.53,0.08-0.8c0.04-0.36,0.05-0.6,0.05-0.72
		c0-0.28-0.1-0.43-0.29-0.43c-0.27,0-0.62,0.3-1.05,0.89c-0.44,0.6-0.87,1.38-1.29,2.36c-0.43,0.98-0.77,2.01-1.04,3.09
		c-0.2,0.83-0.42,1.4-0.68,1.69c-0.26,0.29-0.66,0.44-1.21,0.44C371.7,310.98,371.23,310.62,370.95,309.91"/>
	<path class="st4" d="M398.29,305.22c0.13,0.21,0.2,0.51,0.2,0.88c0,0.71-0.17,1.26-0.51,1.65c-0.73,0.89-1.53,1.65-2.4,2.28
		c-0.87,0.63-1.73,0.95-2.58,0.95c-1.35,0-2.38-0.79-3.09-2.37c-0.75,0.94-1.4,1.57-1.96,1.89c-0.56,0.32-1.21,0.48-1.96,0.48
		c-1.08,0-1.98-0.4-2.68-1.21c-0.7-0.81-1.05-1.86-1.05-3.16c0-1.42,0.3-2.74,0.91-3.96c0.6-1.22,1.43-2.21,2.49-2.98
		c1.06-0.77,2.24-1.23,3.56-1.37c0.34-3.45,0.98-6.39,1.93-8.83c0.95-2.44,2.2-3.66,3.74-3.66c0.76,0,1.4,0.35,1.91,1.04
		c0.51,0.69,0.76,1.74,0.76,3.14c0,1.99-0.49,4.32-1.47,6.98c-0.98,2.66-2.28,5.4-3.92,8.21c0.07,1.03,0.23,1.77,0.47,2.21
		c0.24,0.44,0.55,0.67,0.92,0.67c0.48,0,0.97-0.21,1.47-0.64c0.5-0.43,1.16-1.14,2-2.13c0.21-0.25,0.45-0.37,0.72-0.37
		C397.97,304.9,398.16,305.01,398.29,305.22 M387.94,307.87c0.34-0.28,0.76-0.79,1.28-1.53c-0.18-0.96-0.27-2.03-0.27-3.22
		c0-0.43,0.02-1.12,0.05-2.08c-0.98,0.3-1.79,0.95-2.44,1.96c-0.65,1-0.97,2.12-0.97,3.34c0,1.3,0.44,1.94,1.33,1.94
		C387.26,308.29,387.6,308.15,387.94,307.87 M393.59,290.21c-0.34,1.2-0.63,2.77-0.87,4.7c-0.24,1.94-0.41,3.96-0.52,6.07
		c1.99-4.33,2.98-7.82,2.98-10.44c0-0.67-0.06-1.2-0.17-1.57c-0.12-0.37-0.25-0.56-0.41-0.56
		C394.26,288.41,393.92,289.01,393.59,290.21"/>
	<path class="st4" d="M408.76,305.22c0.13,0.21,0.2,0.51,0.2,0.88c0,0.71-0.17,1.26-0.51,1.65c-0.66,0.8-1.59,1.54-2.78,2.21
		c-1.2,0.68-2.48,1.01-3.85,1.01c-1.86,0-3.31-0.51-4.34-1.52c-1.03-1.01-1.55-2.4-1.55-4.16c0-1.23,0.26-2.37,0.77-3.42
		c0.52-1.06,1.23-1.9,2.14-2.52c0.91-0.62,1.95-0.93,3.1-0.93c1.03,0,1.86,0.31,2.48,0.92c0.62,0.61,0.93,1.44,0.93,2.49
		c0,1.23-0.44,2.28-1.32,3.16c-0.88,0.88-2.37,1.58-4.46,2.09c0.44,0.82,1.29,1.23,2.53,1.23c0.8,0,1.71-0.28,2.73-0.84
		c1.02-0.56,1.91-1.29,2.65-2.2c0.21-0.25,0.45-0.37,0.72-0.37C408.45,304.9,408.63,305.01,408.76,305.22 M399.84,302.19
		c-0.45,0.76-0.68,1.69-0.68,2.77v0.05c1.05-0.25,1.87-0.62,2.48-1.12c0.6-0.5,0.91-1.07,0.91-1.73c0-0.34-0.09-0.61-0.28-0.81
		c-0.19-0.2-0.44-0.31-0.76-0.31C400.84,301.04,400.29,301.42,399.84,302.19"/>
	<path class="st4" d="M407.27,309.91c-0.28-0.71-0.41-1.85-0.41-3.41c0-2.31,0.33-4.5,0.99-6.58c0.16-0.52,0.42-0.89,0.79-1.13
		c0.36-0.24,0.87-0.36,1.53-0.36c0.36,0,0.6,0.04,0.75,0.13c0.14,0.09,0.21,0.26,0.21,0.51c0,0.28-0.13,0.92-0.4,1.92
		c-0.18,0.71-0.32,1.33-0.43,1.87c-0.11,0.53-0.2,1.19-0.27,1.97c0.59-1.53,1.24-2.77,1.97-3.73c0.73-0.96,1.44-1.64,2.14-2.05
		c0.7-0.41,1.35-0.61,1.93-0.61c0.57,0,1,0.15,1.29,0.44c0.29,0.29,0.44,0.72,0.44,1.29c0,0.46-0.1,1.33-0.29,2.61
		c-0.18,1.08-0.32,2.11-0.43,3.08c-0.11,0.97-0.16,2.05-0.16,3.24c0,0.68-0.14,1.16-0.41,1.45c-0.28,0.29-0.72,0.44-1.35,0.44
		c-0.59,0-1.01-0.15-1.28-0.45c-0.27-0.3-0.4-0.75-0.4-1.36c0-0.71,0.12-1.88,0.37-3.52c0.21-1.42,0.32-2.33,0.32-2.72
		c0-0.28-0.1-0.43-0.29-0.43c-0.23,0-0.56,0.3-0.97,0.89c-0.42,0.6-0.84,1.38-1.28,2.36c-0.44,0.98-0.79,2.01-1.05,3.09
		c-0.2,0.83-0.42,1.4-0.68,1.69c-0.26,0.29-0.66,0.44-1.21,0.44C408.02,310.98,407.54,310.62,407.27,309.91"/>
	<path class="st4" d="M354.05,243.64c2-0.52,4.11-0.77,6.28-0.68c1.95,0.08,3.82,0.42,5.59,0.99c1.6-5.16,1.88-12.53,0.45-20.45
		c-2.56-14.2-9.64-24.82-15.81-23.71c-6.17,1.11-9.1,13.53-6.54,27.73c0.16,0.87,0.33,1.73,0.52,2.57
		C349.17,234.66,352.49,239.48,354.05,243.64 M349.57,224.38c0.43-2.38,1.74-4.05,1.74-4.05c1.48-2.05,1.32,0.23,1.32,0.23
		l-0.05,1.53c-0.03,0.7,0.01,1.28,0.01,1.28c0.05,2.61,2.61,4.44,2.61,4.44c4.01,3.87,1.76,8.97,1.76,8.97
		c-0.58,2.35,0.55,1.81,0.55,1.81c0.34-0.34,0.92-2.55,0.92-2.55l0.26-1.05c0.4-1.52,0.16-3.4,0.16-3.4
		c-0.37-3.04-2.18-4.52-2.18-4.52c-0.67-0.49-1.4-1.42-1.4-1.42c-0.87-1.13-1.02-2.45-1.02-2.45c-0.22-1.19,0.14-4,0.14-4
		c0.12-0.87,1.09-0.76,1.09-0.76c1.5,0.19,2.87,1.29,2.87,1.29c2.77,1.87,4.14,5.86,4.14,5.86c1.19,3.09,1.18,5.26,1.18,5.26
		c0.37,5.88-2.14,8.45-2.14,8.45c-1.6,2.02-3.98,1.72-3.98,1.72c-3.22-0.25-5.65-4.21-5.65-4.21c-1.96-3.17-2.42-6.77-2.42-6.77
		C348.97,227.05,349.57,224.38,349.57,224.38"/>
	<path class="st4" d="M342.77,230.86c-1.1-1.04-2.27-2.07-3.5-3.07c-11.22-9.08-23.51-12.49-27.46-7.62
		c-3.94,4.87,1.95,16.19,13.17,25.27c0.47,0.38,0.94,0.75,1.42,1.11c6.1,0.98,11.39,2.82,15.12,5.12c1.98-2.56,4.54-4.66,7.47-6.1
		c1.13-0.56,2.32-1.02,3.56-1.37C350.91,240.07,347.49,235.32,342.77,230.86 M344.04,246.84c-2.6,1.91-7.02,0.5-7.02,0.5
		c-3.56-1.11-6.26-3.55-6.26-3.55c-2.33-1.94-3.62-4.35-3.62-4.35c-1.23-2.08-1.33-4.2-1.33-4.2c-0.21-2.52,1.15-0.69,1.15-0.69
		l0.96,1.19c0.44,0.55,0.85,0.96,0.85,0.96c1.75,1.94,4.87,1.66,4.87,1.66c5.57,0.31,7.2,5.64,7.2,5.64c1.1,2.16,1.6,1.01,1.6,1.01
		c0.03-0.48-0.97-2.53-0.97-2.53l-0.49-0.97c-0.69-1.41-2.1-2.68-2.1-2.68c-2.27-2.06-4.61-1.99-4.61-1.99
		c-0.83,0.07-1.99-0.16-1.99-0.16c-1.4-0.29-2.37-1.19-2.37-1.19c-0.94-0.76-2.51-3.12-2.51-3.12c-0.48-0.74,0.33-1.29,0.33-1.29
		c1.26-0.84,3.01-0.9,3.01-0.9c3.32-0.39,6.96,1.73,6.96,1.73c2.92,1.56,4.33,3.21,4.33,3.21c4.12,4.21,3.9,7.8,3.9,7.8
		C346.05,245.5,344.04,246.84,344.04,246.84"/>
	<path class="st4" d="M340.63,252.96c-3.78-2.22-9.11-3.97-15.22-4.82c-1.35-0.19-2.73-0.34-4.15-0.44
		c-14.4-1.01-26.43,3.24-26.87,9.49c-0.42,5.97,9.88,11.61,23.34,12.99c0.37-0.12,0.73-0.25,1.11-0.36
		c6.45-2.05,12.67-2.85,17.65-2.51c-0.04-0.54-0.07-1.09-0.07-1.64c0-3.75,0.97-7.27,2.67-10.33
		C339.56,254.52,340.07,253.72,340.63,252.96 M336.09,260.58c-1.03,3.06-5.47,4.44-5.47,4.44c-3.55,1.12-7.16,0.68-7.16,0.68
		c-3.02-0.25-5.46-1.49-5.46-1.49c-2.21-1-3.5-2.68-3.5-2.68c-1.62-1.94,0.54-1.22,0.54-1.22l1.47,0.42c0.67,0.2,1.24,0.3,1.24,0.3
		c2.54,0.59,4.94-1.44,4.94-1.44c4.74-2.93,9.13,0.5,9.13,0.5c2.14,1.14,1.89-0.09,1.89-0.09c-0.25-0.41-2.24-1.52-2.24-1.52
		l-0.95-0.51c-1.37-0.76-3.26-0.99-3.26-0.99c-3.04-0.39-4.92,1-4.92,1c-0.64,0.53-1.72,1.01-1.72,1.01
		c-1.31,0.56-2.63,0.38-2.63,0.38c-1.21-0.08-3.85-1.12-3.85-1.12c-0.82-0.33-0.46-1.24-0.46-1.24c0.55-1.41,1.96-2.46,1.96-2.46
		c2.49-2.22,6.69-2.57,6.69-2.57c3.29-0.4,5.39,0.15,5.39,0.15c5.79,1.09,7.66,4.15,7.66,4.15
		C336.96,258.34,336.09,260.58,336.09,260.58"/>
	<path class="st4" d="M336.83,270.89c-0.09-0.51-0.15-1.03-0.21-1.55c-4.99-0.23-11.18,0.71-17.59,2.91
		c-0.37,0.13-0.73,0.26-1.1,0.39c-13.06,4.76-21.92,13.06-19.94,18.83c2.03,5.93,14.75,6.94,28.4,2.26
		c7.58-2.6,13.85-6.41,17.59-10.3C340.3,280.28,337.7,275.89,336.83,270.89 M334.4,284.55c-2.83,2.42-6.33,3.42-6.33,3.42
		c-2.88,0.95-5.61,0.76-5.61,0.76c-2.42-0.06-4.27-1.11-4.27-1.11c-2.25-1.16,0.03-1.34,0.03-1.34l1.52-0.18
		c0.7-0.08,1.26-0.2,1.26-0.2c2.57-0.45,3.99-3.25,3.99-3.25c3.22-4.55,8.6-3.1,8.6-3.1c2.42,0.22,1.71-0.82,1.71-0.82
		c-0.39-0.28-2.66-0.53-2.66-0.53l-1.08-0.1c-1.56-0.16-3.39,0.36-3.39,0.36c-2.95,0.83-4.14,2.84-4.14,2.84
		c-0.38,0.73-1.19,1.6-1.19,1.6c-0.99,1.03-2.27,1.38-2.27,1.38c-1.14,0.4-3.98,0.47-3.98,0.47c-0.88,0.01-0.91-0.97-0.91-0.97
		c-0.04-1.51,0.84-3.03,0.84-3.03c1.43-3.02,5.16-4.98,5.16-4.98c2.87-1.65,5.02-1.97,5.02-1.97c5.75-1.25,8.68,0.84,8.68,0.84
		c2.23,1.27,2.3,3.68,2.3,3.68C337.94,281.55,334.4,284.55,334.4,284.55"/>
	<path class="st4" d="M363.46,250.58c-1.12-0.25-2.28-0.38-3.47-0.38c-1.76,0-3.46,0.29-5.04,0.81c-0.33,0.11-0.66,0.23-0.99,0.36
		c-2.81,1.14-5.22,3.05-6.98,5.47c0.06,0.07,0.11,0.13,0.16,0.2c-0.1,0-0.2-0.01-0.29-0.02c-1.84,2.61-2.92,5.8-2.92,9.23
		c0,0.39,0.02,0.77,0.05,1.15c0.04,0.5,0.09,1,0.17,1.48c0.58,3.52,2.3,6.65,4.77,9c2.88,2.74,6.78,4.43,11.07,4.43
		c8.87,0,16.06-7.19,16.06-16.06C376.04,258.58,370.66,252.17,363.46,250.58"/>
	<path class="st4" d="M385.72,278.84l-6.17-4.07c1.14-2.61,1.77-5.49,1.77-8.51c0-9.83-6.65-18.1-15.7-20.57
		c-1.79-0.49-3.68-0.76-5.63-0.76c-2.17,0-4.27,0.33-6.25,0.93c-1.23,0.38-2.41,0.86-3.53,1.44c-2.9,1.5-5.42,3.64-7.35,6.24
		c-0.56,0.76-1.07,1.55-1.53,2.38c-1.7,3.06-2.67,6.58-2.67,10.33c0,0.55,0.03,1.1,0.07,1.64c0.04,0.52,0.09,1.04,0.17,1.55
		c0.75,5.02,3.26,9.47,6.87,12.7c3.77,3.38,8.76,5.44,14.22,5.44c6.46,0,12.24-2.87,16.15-7.41l6.06,4
		c1.47,0.97,3.46,0.56,4.43-0.91C387.59,281.8,387.18,279.81,385.72,278.84 M376.35,274.21c-0.58,1.18-1.28,2.29-2.09,3.32
		c-3.33,4.22-8.49,6.93-14.28,6.93c-4.68,0-8.95-1.77-12.18-4.68c-3.19-2.88-5.36-6.88-5.88-11.38c0-0.03-0.01-0.05-0.01-0.08
		c-0.08-0.67-0.12-1.36-0.12-2.05c0-3.5,0.99-6.76,2.7-9.53c0.3-0.48,0.61-0.94,0.95-1.39c1.77-2.36,4.11-4.27,6.81-5.54
		c0.79-0.37,1.61-0.69,2.46-0.95c1.67-0.51,3.45-0.78,5.29-0.78c1.58,0,3.12,0.2,4.58,0.58c7.83,2.03,13.61,9.15,13.61,17.61
		C378.18,269.11,377.52,271.8,376.35,274.21"/>
	<text transform="matrix(1 0 0 1 354.7949 323.6902)" class="st4 st5 st6">coffee</text>
	<path class="st4" d="M417.31,319.73h-13.77c-0.27,0-0.49-0.22-0.49-0.49v-0.78c0-0.27,0.22-0.49,0.49-0.49h13.77
		c0.27,0,0.49,0.22,0.49,0.49v0.78C417.81,319.51,417.58,319.73,417.31,319.73"/>
	<path class="st4" d="M352.09,319.73h-14.54c-0.27,0-0.49-0.22-0.49-0.49v-0.78c0-0.27,0.22-0.49,0.49-0.49h14.54
		c0.27,0,0.49,0.22,0.49,0.49v0.78C352.58,319.51,352.36,319.73,352.09,319.73"/>
</g>
</svg>
