<svg id="Capa_1" data-name="Capa 1" xmlns="http://www.w3.org/2000/svg" xmlns:xlink="http://www.w3.org/1999/xlink" viewBox="0 0 245.35 169.07"><defs><style>.cls-1{fill:#fff;}.cls-10,.cls-2,.cls-3,.cls-4,.cls-5,.cls-7,.cls-8,.cls-9{stroke-miterlimit:10;}.cls-2{fill:url(#Degradado_sin_nombre);stroke:url(#Degradado_sin_nombre_2);}.cls-3{fill:url(#Degradado_sin_nombre_3);stroke:url(#Degradado_sin_nombre_4);}.cls-4{fill:url(#Degradado_sin_nombre_5);stroke:url(#Degradado_sin_nombre_6);}.cls-5{fill:url(#Degradado_sin_nombre_7);stroke:url(#Degradado_sin_nombre_8);}.cls-6{fill:#93191f;}.cls-7{fill:url(#Degradado_sin_nombre_9);stroke:url(#Degradado_sin_nombre_10);}.cls-8{fill:url(#Degradado_sin_nombre_11);stroke:url(#Degradado_sin_nombre_12);}.cls-9{fill:url(#Degradado_sin_nombre_13);stroke:url(#Degradado_sin_nombre_14);}.cls-10{fill:url(#Degradado_sin_nombre_15);stroke:url(#Degradado_sin_nombre_16);}.cls-11{fill:#1d1d1b;}</style><linearGradient id="Degradado_sin_nombre" x1="-31.86" y1="2248.01" x2="21.99" y2="2248.01" gradientTransform="matrix(0.82, -0.57, -0.57, -0.82, 1408.32, 1862.86)" gradientUnits="userSpaceOnUse"><stop offset="0.16" stop-color="#e20613"/><stop offset="0.47" stop-color="#e20613"/></linearGradient><linearGradient id="Degradado_sin_nombre_2" x1="-32.36" y1="2248.01" x2="22.49" y2="2248.01" xlink:href="#Degradado_sin_nombre"/><linearGradient id="Degradado_sin_nombre_3" x1="-232.9" y1="383.17" x2="-179.06" y2="383.17" gradientTransform="matrix(0.57, 0.82, 0.82, -0.57, -44.52, 442.26)" xlink:href="#Degradado_sin_nombre"/><linearGradient id="Degradado_sin_nombre_4" x1="-233.4" y1="383.17" x2="-178.56" y2="383.17" gradientTransform="matrix(0.57, 0.82, 0.82, -0.57, -44.52, 442.26)" xlink:href="#Degradado_sin_nombre"/><linearGradient id="Degradado_sin_nombre_5" x1="1631.94" y1="182.13" x2="1685.79" y2="182.13" gradientTransform="matrix(-0.82, 0.57, 0.57, 0.82, 1376.08, -1010.58)" xlink:href="#Degradado_sin_nombre"/><linearGradient id="Degradado_sin_nombre_6" x1="1631.44" y1="182.13" x2="1686.29" y2="182.13" gradientTransform="matrix(-0.82, 0.57, 0.57, 0.82, 1376.08, -1010.58)" xlink:href="#Degradado_sin_nombre"/><linearGradient id="Degradado_sin_nombre_7" x1="1832.98" y1="2046.97" x2="1886.83" y2="2046.97" gradientTransform="matrix(-0.57, -0.82, -0.82, 0.57, 2828.92, 410.03)" xlink:href="#Degradado_sin_nombre"/><linearGradient id="Degradado_sin_nombre_8" x1="1832.48" y1="2046.97" x2="1887.33" y2="2046.97" gradientTransform="matrix(-0.57, -0.82, -0.82, 0.57, 2828.92, 410.03)" xlink:href="#Degradado_sin_nombre"/><linearGradient id="Degradado_sin_nombre_9" x1="105.53" y1="124.4" x2="125.58" y2="124.4" gradientTransform="matrix(1, 0, 0, -1, 0, 169.96)" xlink:href="#Degradado_sin_nombre"/><linearGradient id="Degradado_sin_nombre_10" x1="105.03" y1="124.4" x2="126.08" y2="124.4" gradientTransform="matrix(1, 0, 0, -1, 0, 169.96)" xlink:href="#Degradado_sin_nombre"/><linearGradient id="Degradado_sin_nombre_11" x1="118.62" y1="117.28" x2="139.09" y2="117.28" gradientTransform="matrix(1, 0, 0, -1, 0, 169.96)" xlink:href="#Degradado_sin_nombre"/><linearGradient id="Degradado_sin_nombre_12" x1="118.12" y1="117.28" x2="139.59" y2="117.28" gradientTransform="matrix(1, 0, 0, -1, 0, 169.96)" xlink:href="#Degradado_sin_nombre"/><linearGradient id="Degradado_sin_nombre_13" x1="111.7" y1="103.99" x2="131.75" y2="103.99" gradientTransform="matrix(1, 0, 0, -1, 0, 169.96)" xlink:href="#Degradado_sin_nombre"/><linearGradient id="Degradado_sin_nombre_14" x1="111.2" y1="104.39" x2="132.25" y2="104.39" gradientTransform="matrix(1, 0, 0, -1, 0, 169.96)" xlink:href="#Degradado_sin_nombre"/><linearGradient id="Degradado_sin_nombre_15" x1="98.2" y1="111.11" x2="118.67" y2="111.11" gradientTransform="matrix(1, 0, 0, -1, 0, 169.96)" xlink:href="#Degradado_sin_nombre"/><linearGradient id="Degradado_sin_nombre_16" x1="97.7" y1="111.11" x2="119.17" y2="111.11" gradientTransform="matrix(1, 0, 0, -1, 0, 169.96)" xlink:href="#Degradado_sin_nombre"/></defs><path class="cls-1" d="M7.46,169.48c-2.61-.23-4.22-.94-4.85-2.13a9.87,9.87,0,0,1-.93-4.58A28.2,28.2,0,0,1,3,155.25q1.27-4.47,3.19-9.73T10,135c-.67.06-1.4.13-2.16.22s-1.72.2-2.85.34-2.61.35-4.42.64a4.7,4.7,0,0,1,1.66-3.44,9.73,9.73,0,0,1,4-1.83,26.7,26.7,0,0,1,5.52-.68q2.37-6.54,4.88-12.79t5-11.43c-.56-.05-1.11-.1-1.65-.12s-1.09,0-1.66,0A25.06,25.06,0,0,0,9.83,107a6.92,6.92,0,0,0-4.08,3.4,13.61,13.61,0,0,0-1.1,5.86,21.63,21.63,0,0,0,.25,3.44,20.28,20.28,0,0,0,.85,3.27,6.58,6.58,0,0,1-4.24-2.26A6.87,6.87,0,0,1,.15,116.3a11,11,0,0,1,3.14-7.77,21.17,21.17,0,0,1,8.45-5.27,34.68,34.68,0,0,1,11.77-1.91,57.4,57.4,0,0,1,8.71.64,55.21,55.21,0,0,0,8.2.63,23.45,23.45,0,0,0,3.27-.21,22.49,22.49,0,0,0,3-.64,22.72,22.72,0,0,1-5.26,4.76,8.71,8.71,0,0,1-4.33,1.19,29.86,29.86,0,0,1-5.06-.55c-2.07-.37-4.4-.67-7-.89q-1.09,2.81-2.46,6.75t-2.8,8.41l-2.89,8.88c2.83.17,5.51.42,8,.77a65.94,65.94,0,0,0,6.84.59,5.22,5.22,0,0,1-1.57,1.57,6.84,6.84,0,0,1-2.51.81,41.19,41.19,0,0,1-4.46.38c-1.9.09-4.43.16-7.61.21-.34,1.19-.76,2.61-1.27,4.25s-1,3.2-1.36,4.67-.71,2.55-.93,3.23Q10.18,153.34,8.86,159A50,50,0,0,0,7.46,169.48Z" transform="translate(-0.15 -0.4)"/><path class="cls-1" d="M42.54,164.63q-3.65,0-5.22-2.5a11.55,11.55,0,0,1-1.57-6.25,37.6,37.6,0,0,1,1.53-9.68,106.76,106.76,0,0,1,4-11.81q2.5-6.19,5.48-12.11t6-10.75a59.55,59.55,0,0,1,5.47-7.73c1.67-1.92,3-2.89,3.95-2.89A1.75,1.75,0,0,1,63.69,102a9.49,9.49,0,0,1,.94,2.55A12.5,12.5,0,0,1,65,107.2a21.1,21.1,0,0,1-1.15,6,68.12,68.12,0,0,1-3.23,8.24,82.57,82.57,0,0,1-4.93,9.18,91,91,0,0,1-6.2,8.88,47.4,47.4,0,0,1-7.09,7.3c-.34,1.53-.61,3-.81,4.46a30.1,30.1,0,0,0-.29,4.12,10.18,10.18,0,0,0,.93,4.93,3,3,0,0,0,2.8,1.62,6.81,6.81,0,0,0,4.55-2,25.46,25.46,0,0,0,4.25-5.14,46.19,46.19,0,0,0,3.44-6.42l1.27.68a43.09,43.09,0,0,1-7.39,11.43C48.47,163.23,45.6,164.63,42.54,164.63Zm.6-20.73a56.75,56.75,0,0,0,5.78-6.84,92,92,0,0,0,5.22-8q2.43-4.16,4.3-8.07a60.16,60.16,0,0,0,2.88-7,16.73,16.73,0,0,0,1-4.8,2,2,0,0,0-.21-1.11.55.55,0,0,0-.38-.25c-.45,0-1.23.72-2.33,2.16a66.3,66.3,0,0,0-3.87,5.82q-2.2,3.66-4.5,8.33t-4.38,9.77A102.91,102.91,0,0,0,43.14,143.9Z" transform="translate(-0.15 -0.4)"/><path class="cls-1" d="M59.62,166.08a6.24,6.24,0,0,1-4.46-1.74q-1.83-1.74-1.83-5.31a18.53,18.53,0,0,1,1.36-6.59,33.74,33.74,0,0,1,3.74-7,39.6,39.6,0,0,1,5.39-6.29,27.33,27.33,0,0,1,6.38-4.55,14.68,14.68,0,0,1,6.67-1.7,8.71,8.71,0,0,1,5.52,1.74,5.62,5.62,0,0,1,2.21,4.64,3.21,3.21,0,0,1-1.15,2.88,5.34,5.34,0,0,1-3,.77c.11-.46.21-.95.3-1.49a10.24,10.24,0,0,0,.13-1.49,6,6,0,0,0-.94-3.36,3.6,3.6,0,0,0-3.23-1.4,8.63,8.63,0,0,0-4.84,1.66,22.81,22.81,0,0,0-4.76,4.41,38.52,38.52,0,0,0-4.08,6,36.59,36.59,0,0,0-2.8,6.38,18.41,18.41,0,0,0-1,5.61c0,2.2.77,3.31,2.3,3.31a7,7,0,0,0,4.25-1.83,33.77,33.77,0,0,0,4.71-4.67c1.62-1.9,3.16-3.86,4.64-5.9s2.77-3.91,3.9-5.61c.23-.35.37-.51.43-.51a9.13,9.13,0,0,1,1.31.34,5.13,5.13,0,0,1,1.41.68,1.3,1.3,0,0,1,.59,1.11,4.73,4.73,0,0,1-.76,2.08c-.51.88-1.08,1.88-1.7,3s-1.19,2.28-1.7,3.44a8.16,8.16,0,0,0-.77,3.27,5.14,5.14,0,0,0,.68,2.5,2.33,2.33,0,0,0,2.21,1.23c1.53,0,3.54-1.11,6-3.35a40.52,40.52,0,0,0,7.56-10.07l.85.85a30.19,30.19,0,0,1-4.59,8.07,23.41,23.41,0,0,1-6,5.44,11.93,11.93,0,0,1-6.24,1.95,5.56,5.56,0,0,1-4.63-1.86,6.44,6.44,0,0,1-1.49-4.08,8.15,8.15,0,0,1,.09-1.15c0-.42.11-.86.17-1.32a41.62,41.62,0,0,1-6.67,7.39A9.6,9.6,0,0,1,59.62,166.08Z" transform="translate(-0.15 -0.4)"/><path class="cls-1" d="M135.4,164.72a5,5,0,0,1-4.33-1.83,7.15,7.15,0,0,1-1.36-4.37,14.85,14.85,0,0,1,.64-4.25c.43-1.41.85-2.8,1.28-4.17a12.49,12.49,0,0,0,.63-3.65,3.09,3.09,0,0,0-.76-2.38,2.52,2.52,0,0,0-1.7-.68q-2.13,0-4.63,3.32t-6.5,9.35a28.16,28.16,0,0,0-2.3,4.12c-.62,1.38-1.21,2.64-1.78,3.78a11.13,11.13,0,0,1-1.7-.17,7,7,0,0,1-1.83-.56c-.54-.25-.8-.58-.8-1a12.07,12.07,0,0,1,.8-2.85c.54-1.5,1.16-3.25,1.87-5.27s1.33-4,1.87-6.11a21.58,21.58,0,0,0,.81-5.31,5.07,5.07,0,0,0-.47-2.34,1.7,1.7,0,0,0-1.65-.89q-1.87,0-4.51,2.25a39.6,39.6,0,0,0-5.43,5.91,70.76,70.76,0,0,0-5.32,8,53.26,53.26,0,0,0-4,8.71,8.63,8.63,0,0,1-1.87-.26,8,8,0,0,1-1.91-.68c-.54-.28-.81-.57-.81-.85a15.59,15.59,0,0,1,.89-3q.9-2.51,2-6c.77-2.35,1.44-4.74,2-7.18a27.85,27.85,0,0,0,.89-6.46,5.58,5.58,0,0,1,1.61-1.18,4.76,4.76,0,0,1,2.3-.6,2.27,2.27,0,0,1,1.74.6,2.29,2.29,0,0,1,.55,1.61,18.72,18.72,0,0,1-.64,3.78c-.42,1.79-1,3.76-1.57,5.91,1.13-1.81,2.42-3.67,3.87-5.56a50.57,50.57,0,0,1,4.54-5.23,26.82,26.82,0,0,1,4.8-3.86,9,9,0,0,1,4.71-1.49A3.71,3.71,0,0,1,121,135.8a9.89,9.89,0,0,1,1,4.55,22.2,22.2,0,0,1-.47,4.46c-.31,1.56-.66,3-1.06,4.33a28.82,28.82,0,0,1-1.1,3.18,60.05,60.05,0,0,1,4-6.24,22.48,22.48,0,0,1,4.71-4.93,8.84,8.84,0,0,1,5.44-1.91c1.81,0,3.07.54,3.78,1.61a6.79,6.79,0,0,1,1.06,3.83,17.79,17.79,0,0,1-.76,4.84q-.77,2.64-1.58,5.1a13.89,13.89,0,0,0-.8,4.24,3.69,3.69,0,0,0,.55,2,2.17,2.17,0,0,0,2,.89,6.15,6.15,0,0,0,4.46-2.17,26.92,26.92,0,0,0,3.86-5.26,63.18,63.18,0,0,0,3.06-6l1,1.2a44.21,44.21,0,0,1-3.48,7.09,21.9,21.9,0,0,1-5,5.82A9.74,9.74,0,0,1,135.4,164.72Z" transform="translate(-0.15 -0.4)"/><path class="cls-1" d="M156.64,165.82c-3.45,0-6-.95-7.77-2.84a10,10,0,0,1-2.59-7,19.74,19.74,0,0,1,1.91-8.07,33.35,33.35,0,0,1,5.1-8,29.43,29.43,0,0,1,7-6.07,14.42,14.42,0,0,1,7.56-2.34,6.73,6.73,0,0,1,3.61,1c1.11.68,1.66,2.07,1.66,4.16a10.74,10.74,0,0,1-1.91,6.08,19.87,19.87,0,0,1-5,5.06,30.25,30.25,0,0,1-6.8,3.61,28.23,28.23,0,0,1-7.35,1.74c-.11.57-.2,1.11-.25,1.61a12.39,12.39,0,0,0-.09,1.45,11.1,11.1,0,0,0,.3,2.55,6.25,6.25,0,0,0,1.06,2.33,5.08,5.08,0,0,0,2.08,1.66,8.07,8.07,0,0,0,3.27.59,14.13,14.13,0,0,0,7.22-2.08,28,28,0,0,0,6.63-5.48,35.53,35.53,0,0,0,5.18-7.48l1,.77a31.86,31.86,0,0,1-5.82,8.84,27.85,27.85,0,0,1-7.64,5.82A18.48,18.48,0,0,1,156.64,165.82Zm-4.16-14.27a37.17,37.17,0,0,0,5.18-2.25,38.31,38.31,0,0,0,5.57-3.53,20.82,20.82,0,0,0,4.41-4.5,8.84,8.84,0,0,0,1.74-5.18,2.57,2.57,0,0,0-.34-1.45,1.64,1.64,0,0,0-1.44-.51,7.78,7.78,0,0,0-4.33,1.57,21.9,21.9,0,0,0-4.42,4.12,35.7,35.7,0,0,0-3.82,5.61A27.45,27.45,0,0,0,152.48,151.55Z" transform="translate(-0.15 -0.4)"/><path class="cls-1" d="M203.2,163.79a6,6,0,0,1-4.46-1.53,5.4,5.4,0,0,1-1.49-3.91,11.9,11.9,0,0,1,.64-3.74c.42-1.3.83-2.64,1.23-4a14.52,14.52,0,0,0,.59-4,4.36,4.36,0,0,0-1-3.27,3.49,3.49,0,0,0-2.42-.89,8.65,8.65,0,0,0-5.35,2.17,31.09,31.09,0,0,0-5.27,5.52c-1.7,2.24-3.28,4.55-4.76,6.93s-2.77,4.5-3.91,6.37a7.29,7.29,0,0,1-2.59-.47,4.07,4.07,0,0,1-1.91-1.4,12.89,12.89,0,0,1,.89-2.64q.9-2.21,2.08-5.44c.8-2.15,1.5-4.36,2.13-6.62a23.62,23.62,0,0,0,.93-6.2,5.47,5.47,0,0,1,1.62-1.19,4.71,4.71,0,0,1,2.29-.59c1.53,0,2.29.73,2.29,2.21a22.45,22.45,0,0,1-.76,4.54q-.76,3.19-1.95,6.67a78.69,78.69,0,0,1,5.14-6.92,31.92,31.92,0,0,1,6.08-5.73,11.08,11.08,0,0,1,6.45-2.3,5.24,5.24,0,0,1,4.8,2.38,9.76,9.76,0,0,1,1.49,5.27,13.64,13.64,0,0,1-.85,4.88c-.57,1.5-1.14,3-1.74,4.33a10.72,10.72,0,0,0-.89,4.21,3.41,3.41,0,0,0,.73,2.5,2.44,2.44,0,0,0,1.82.73,6.25,6.25,0,0,0,4.25-2,27.65,27.65,0,0,0,4.12-5.05,56.9,56.9,0,0,0,3.53-6.21l.93,1.11a43.13,43.13,0,0,1-4,7.39,20.14,20.14,0,0,1-4.84,5.1A10.09,10.09,0,0,1,203.2,163.79Z" transform="translate(-0.15 -0.4)"/><path class="cls-1" d="M224.44,166.85a9.23,9.23,0,0,1-6.8-2.72c-1.81-1.82-2.72-4.53-2.72-8.15a21.52,21.52,0,0,1,1.66-8.29,27.15,27.15,0,0,1,4.37-7.26,22.65,22.65,0,0,1,6-5.14,13,13,0,0,1,6.54-1.92c2.33,0,3.91.68,4.76,2a7.91,7.91,0,0,1,1.27,4.25,8.11,8.11,0,0,1-1.14,4.33,3.5,3.5,0,0,1-3.11,1.87,3.05,3.05,0,0,1-2.46-1.27,5.55,5.55,0,0,0,2.21-2.76,9.72,9.72,0,0,0,.93-4,2.7,2.7,0,0,0-.38-1.57,1.7,1.7,0,0,0-1.49-.56,7.39,7.39,0,0,0-4.71,2,22.88,22.88,0,0,0-4.5,5.27,34.49,34.49,0,0,0-3.4,6.79,19.41,19.41,0,0,0-1.32,6.71,9.55,9.55,0,0,0,1.27,4.85q1.28,2.21,4.93,2.21a14.21,14.21,0,0,0,6.84-1.88,22.6,22.6,0,0,0,6.41-5.35,27.45,27.45,0,0,0,4.76-8.15l1.11.85a31.66,31.66,0,0,1-5.35,9.13,27.41,27.41,0,0,1-7.48,6.33A16.6,16.6,0,0,1,224.44,166.85Z" transform="translate(-0.15 -0.4)"/><path class="cls-2" d="M100.74,44S69.9,14.13,90.63,7.13a17.54,17.54,0,0,1,11.53,1s10.54,4.3,17.3-.74c0,0,21.6-19.43,17.23,8.93,0,0-2.8,19.46-10.3,31.59a14.68,14.68,0,0,1-7.74,7.85S114.42,57.47,100.74,44Z" transform="translate(-0.15 -0.4)"/><path class="cls-3" d="M130.38,37.87S160.28,7,167.28,27.75a17.47,17.47,0,0,1-1,11.53s-4.3,10.54.74,17.3c0,0,19.43,21.6-8.93,17.23,0,0-19.46-2.8-31.59-10.3a14.68,14.68,0,0,1-7.85-7.74S116.94,51.54,130.38,37.87Z" transform="translate(-0.15 -0.4)"/><path class="cls-4" d="M136.54,67.51s30.84,29.9,10.11,36.9a17.51,17.51,0,0,1-11.53-1s-10.53-4.29-17.3.75c0,0-21.59,19.43-17.23-8.93,0,0,2.8-19.47,10.31-31.59a14.64,14.64,0,0,1,7.74-7.86S122.87,54.06,136.54,67.51Z" transform="translate(-0.15 -0.4)"/><path class="cls-5" d="M106.9,73.67S77,104.51,70,83.78a17.51,17.51,0,0,1,1-11.53s4.29-10.54-.75-17.3c0,0-19.43-21.6,8.93-17.23,0,0,19.47,2.8,31.6,10.3a14.68,14.68,0,0,1,7.85,7.74S120.34,60,106.9,73.67Z" transform="translate(-0.15 -0.4)"/><path class="cls-6" d="M106.35,47.7S85.18,27.18,99.41,22.38a12,12,0,0,1,7.92.69s7.23,2.95,11.87-.51c0,0,14.82-13.34,11.83,6.13,0,0-1.92,13.37-7.08,21.69a10.07,10.07,0,0,1-5.31,5.39S115.74,56.93,106.35,47.7Z" transform="translate(-0.15 -0.4)"/><path class="cls-6" d="M126.7,43.48S147.22,22.31,152,36.54a12,12,0,0,1-.7,7.91s-2.94,7.23.52,11.88c0,0,13.34,14.82-6.13,11.82,0,0-13.37-1.92-21.69-7.07a10.07,10.07,0,0,1-5.39-5.32S117.48,52.87,126.7,43.48Z" transform="translate(-0.15 -0.4)"/><path class="cls-6" d="M130.93,63.83s21.17,20.52,6.94,25.32a12,12,0,0,1-7.92-.69s-7.23-2.95-11.87.51c0,0-14.83,13.34-11.83-6.13,0,0,1.92-13.36,7.08-21.68a10.08,10.08,0,0,1,5.31-5.4S121.54,54.6,130.93,63.83Z" transform="translate(-0.15 -0.4)"/><path class="cls-6" d="M110.58,68.05S90.06,89.22,85.26,75A12,12,0,0,1,86,67.08s3-7.23-.51-11.88c0,0-13.34-14.82,6.13-11.82,0,0,13.36,1.92,21.68,7.07a10.07,10.07,0,0,1,5.4,5.32S119.81,58.67,110.58,68.05Z" transform="translate(-0.15 -0.4)"/><path class="cls-7" d="M112,51.39s-11.49-11.14-3.77-13.75a6.57,6.57,0,0,1,4.3.38s3.92,1.6,6.44-.28c0,0,8-7.24,6.42,3.33,0,0-1,7.25-3.84,11.77a5.47,5.47,0,0,1-2.88,2.93S117.07,56.4,112,51.39Z" transform="translate(-0.15 -0.4)"/><path class="cls-8" d="M123,49.1s11.14-11.5,13.75-3.77a6.5,6.5,0,0,1-.38,4.3s-1.6,3.92.28,6.44c0,0,7.24,8.05-3.33,6.42,0,0-7.25-1-11.77-3.84a5.46,5.46,0,0,1-2.93-2.89S118,54.19,123,49.1Z" transform="translate(-0.15 -0.4)"/><path class="cls-9" d="M125.31,60.14s11.5,11.14,3.77,13.75a6.5,6.5,0,0,1-4.3-.38s-3.92-1.6-6.44.28c0,0-8,7.24-6.42-3.33,0,0,1-7.25,3.84-11.77a5.46,5.46,0,0,1,2.89-2.93S120.22,55.13,125.31,60.14Z" transform="translate(-0.15 -0.4)"/><path class="cls-10" d="M114.27,62.44s-11.15,11.49-13.75,3.77a6.5,6.5,0,0,1,.38-4.3s1.6-3.92-.28-6.44c0,0-7.24-8,3.32-6.42,0,0,7.26,1,11.77,3.84a5.47,5.47,0,0,1,2.93,2.88S119.28,57.34,114.27,62.44Z" transform="translate(-0.15 -0.4)"/><path class="cls-1" d="M114.47,53s-7.19-7-2.36-8.6a4.1,4.1,0,0,1,2.69.24s2.45,1,4-.17c0,0,5-4.53,4,2.08a23.11,23.11,0,0,1-2.4,7.37,3.41,3.41,0,0,1-1.8,1.83S117.66,56.16,114.47,53Z" transform="translate(-0.15 -0.4)"/><path class="cls-1" d="M121.38,51.59s7-7.19,8.6-2.36a4.1,4.1,0,0,1-.24,2.69s-1,2.45.17,4c0,0,4.53,5-2.08,4a23.11,23.11,0,0,1-7.37-2.4,3.41,3.41,0,0,1-1.83-1.8S118.24,54.78,121.38,51.59Z" transform="translate(-0.15 -0.4)"/><path class="cls-1" d="M122.81,58.5s7.19,7,2.36,8.6a4.08,4.08,0,0,1-2.68-.24s-2.46-1-4,.17c0,0-5,4.53-4-2.08a23.4,23.4,0,0,1,2.4-7.37,3.45,3.45,0,0,1,1.81-1.83S119.63,55.37,122.81,58.5Z" transform="translate(-0.15 -0.4)"/><path class="cls-1" d="M115.91,59.94s-7,7.19-8.6,2.36a4.1,4.1,0,0,1,.24-2.69s1-2.45-.18-4c0,0-4.52-5,2.09-4a23.09,23.09,0,0,1,7.36,2.4,3.37,3.37,0,0,1,1.83,1.8S119,56.75,115.91,59.94Z" transform="translate(-0.15 -0.4)"/><ellipse class="cls-11" cx="113.98" cy="58.41" rx="3.83" ry="5.55" transform="translate(-12.62 78.31) rotate(-36.26)"/><ellipse class="cls-11" cx="122.7" cy="50.67" rx="3.85" ry="5.67"/><circle class="cls-11" cx="122.63" cy="60.1" r="2.81"/><circle class="cls-11" cx="119.38" cy="65.57" r="2.81"/></svg>