<svg id="Capa_1" data-name="Capa 1" xmlns="http://www.w3.org/2000/svg" xmlns:xlink="http://www.w3.org/1999/xlink" viewBox="0 0 197.26 60.36"><defs><style>.cls-1{fill:#fff;}.cls-10,.cls-2,.cls-3,.cls-4,.cls-5,.cls-7,.cls-8,.cls-9{stroke-miterlimit:10;}.cls-2{fill:url(#Degradado_sin_nombre_13);stroke:url(#Degradado_sin_nombre_13-2);}.cls-3{fill:url(#Degradado_sin_nombre_13-3);stroke:url(#Degradado_sin_nombre_13-4);}.cls-4{fill:url(#Degradado_sin_nombre_13-5);stroke:url(#Degradado_sin_nombre_13-6);}.cls-5{fill:url(#Degradado_sin_nombre_13-7);stroke:url(#Degradado_sin_nombre_13-8);}.cls-6{fill:#931820;}.cls-7{fill:url(#Degradado_sin_nombre_13-9);stroke:url(#Degradado_sin_nombre_13-10);}.cls-8{fill:url(#Degradado_sin_nombre_13-11);stroke:url(#Degradado_sin_nombre_13-12);}.cls-9{fill:url(#Degradado_sin_nombre_13-13);stroke:url(#Degradado_sin_nombre_13-14);}.cls-10{fill:url(#Degradado_sin_nombre_13-15);stroke:url(#Degradado_sin_nombre_13-16);}.cls-11{fill:#1e1e1c;}</style><linearGradient id="Degradado_sin_nombre_13" x1="-238.62" y1="-2073.23" x2="-209.49" y2="-2073.23" gradientTransform="translate(1400.25 1583.61) rotate(-34.94)" gradientUnits="userSpaceOnUse"><stop offset="0.16" stop-color="#e20e17"/><stop offset="0.47" stop-color="#e20e17"/></linearGradient><linearGradient id="Degradado_sin_nombre_13-2" x1="-239.12" y1="-2073.23" x2="-208.99" y2="-2073.23" xlink:href="#Degradado_sin_nombre_13"/><linearGradient id="Degradado_sin_nombre_13-3" x1="-202.44" y1="-378.66" x2="-173.31" y2="-378.66" gradientTransform="translate(-154.73 400.08) rotate(55.06)" xlink:href="#Degradado_sin_nombre_13"/><linearGradient id="Degradado_sin_nombre_13-4" x1="-202.94" y1="-378.66" x2="-172.81" y2="-378.66" gradientTransform="translate(-154.73 400.08) rotate(55.06)" xlink:href="#Degradado_sin_nombre_13"/><linearGradient id="Degradado_sin_nombre_13-5" x1="1492.13" y1="-414.85" x2="1521.26" y2="-414.85" gradientTransform="translate(1028.8 -1154.9) rotate(145.06)" xlink:href="#Degradado_sin_nombre_13"/><linearGradient id="Degradado_sin_nombre_13-6" x1="1491.63" y1="-414.85" x2="1521.76" y2="-414.85" gradientTransform="translate(1028.8 -1154.9) rotate(145.06)" xlink:href="#Degradado_sin_nombre_13"/><linearGradient id="Degradado_sin_nombre_13-7" x1="1455.95" y1="-2109.41" x2="1485.08" y2="-2109.41" gradientTransform="translate(2583.78 28.63) rotate(-124.94)" xlink:href="#Degradado_sin_nombre_13"/><linearGradient id="Degradado_sin_nombre_13-8" x1="1455.45" y1="-2109.41" x2="1485.58" y2="-2109.41" gradientTransform="translate(2583.78 28.63) rotate(-124.94)" xlink:href="#Degradado_sin_nombre_13"/><linearGradient id="Degradado_sin_nombre_13-9" x1="23.15" y1="24.67" x2="34" y2="24.67" gradientTransform="matrix(1, 0, 0, 1, 0, 0)" xlink:href="#Degradado_sin_nombre_13"/><linearGradient id="Degradado_sin_nombre_13-10" x1="22.65" y1="24.67" x2="34.5" y2="24.67" gradientTransform="matrix(1, 0, 0, 1, 0, 0)" xlink:href="#Degradado_sin_nombre_13"/><linearGradient id="Degradado_sin_nombre_13-11" x1="30.23" y1="28.52" x2="41.31" y2="28.52" gradientTransform="matrix(1, 0, 0, 1, 0, 0)" xlink:href="#Degradado_sin_nombre_13"/><linearGradient id="Degradado_sin_nombre_13-12" x1="29.73" y1="28.52" x2="41.81" y2="28.52" gradientTransform="matrix(1, 0, 0, 1, 0, 0)" xlink:href="#Degradado_sin_nombre_13"/><linearGradient id="Degradado_sin_nombre_13-13" x1="26.49" y1="35.71" x2="37.34" y2="35.71" gradientTransform="matrix(1, 0, 0, 1, 0, 0)" xlink:href="#Degradado_sin_nombre_13"/><linearGradient id="Degradado_sin_nombre_13-14" x1="25.99" y1="35.71" x2="37.84" y2="35.71" gradientTransform="matrix(1, 0, 0, 1, 0, 0)" xlink:href="#Degradado_sin_nombre_13"/><linearGradient id="Degradado_sin_nombre_13-15" x1="19.18" y1="31.86" x2="30.26" y2="31.86" gradientTransform="matrix(1, 0, 0, 1, 0, 0)" xlink:href="#Degradado_sin_nombre_13"/><linearGradient id="Degradado_sin_nombre_13-16" x1="18.68" y1="31.86" x2="30.76" y2="31.86" gradientTransform="matrix(1, 0, 0, 1, 0, 0)" xlink:href="#Degradado_sin_nombre_13"/></defs><path class="cls-1" d="M74.46,45.06C73.11,45,72.28,44.58,72,44a5,5,0,0,1-.49-2.37,14.52,14.52,0,0,1,.66-3.88q.66-2.31,1.65-5c.65-1.81,1.32-3.63,2-5.44l-1.12.11-1.47.18c-.58.07-1.34.18-2.28.32a2.43,2.43,0,0,1,.86-1.77,4.83,4.83,0,0,1,2-.94,13.52,13.52,0,0,1,2.85-.36q1.23-3.37,2.52-6.59t2.57-5.9l-.86-.07-.85,0a13,13,0,0,0-4.35.57,3.56,3.56,0,0,0-2.1,1.75,7,7,0,0,0-.57,3,11,11,0,0,0,.13,1.78A9.5,9.5,0,0,0,73.58,21a3.33,3.33,0,0,1-2.19-1.16,3.55,3.55,0,0,1-.71-2.26,5.71,5.71,0,0,1,1.63-4,11,11,0,0,1,4.36-2.72,17.77,17.77,0,0,1,6.07-1,31.36,31.36,0,0,1,4.5.32,28.19,28.19,0,0,0,4.23.33,11.07,11.07,0,0,0,1.69-.11,11.44,11.44,0,0,0,1.56-.33A12,12,0,0,1,92,12.57a4.55,4.55,0,0,1-2.24.61,15.51,15.51,0,0,1-2.61-.28c-1.07-.19-2.27-.34-3.62-.46-.38,1-.8,2.13-1.27,3.48s-1,2.81-1.45,4.35-1,3.06-1.49,4.58c1.46.09,2.85.22,4.15.39a32.52,32.52,0,0,0,3.53.31,2.83,2.83,0,0,1-.81.81,3.6,3.6,0,0,1-1.3.42,22.62,22.62,0,0,1-2.3.2c-1,0-2.29.08-3.92.11Q78.4,28,78,29.28c-.27.85-.5,1.65-.7,2.41s-.37,1.31-.49,1.67q-1,3.38-1.64,6.31A25.77,25.77,0,0,0,74.46,45.06Z" transform="translate(-0.06 -0.01)"/><path class="cls-1" d="M92.57,42.56a2.94,2.94,0,0,1-2.7-1.29,6,6,0,0,1-.81-3.22,19.24,19.24,0,0,1,.79-5A54.48,54.48,0,0,1,91.93,27c.86-2.13,1.81-4.21,2.83-6.25s2-3.88,3.07-5.54a29.19,29.19,0,0,1,2.83-4c.86-1,1.54-1.49,2-1.49a.89.89,0,0,1,.78.54,5,5,0,0,1,.49,1.32,6.64,6.64,0,0,1,.17,1.38,10.77,10.77,0,0,1-.59,3.09,35.18,35.18,0,0,1-1.67,4.26A43,43,0,0,1,99.34,25a47.44,47.44,0,0,1-3.2,4.58,24.89,24.89,0,0,1-3.66,3.78c-.18.79-.32,1.55-.42,2.3a15.89,15.89,0,0,0-.15,2.12,5.29,5.29,0,0,0,.48,2.55,1.57,1.57,0,0,0,1.45.83,3.49,3.49,0,0,0,2.34-1,13.24,13.24,0,0,0,2.2-2.65,25.14,25.14,0,0,0,1.77-3.31l.66.35A22.13,22.13,0,0,1,97,40.39,6,6,0,0,1,92.57,42.56Zm.3-10.7a27.39,27.39,0,0,0,3-3.53,47.41,47.41,0,0,0,2.7-4.14c.84-1.43,1.57-2.82,2.22-4.17a31.4,31.4,0,0,0,1.49-3.61,8.59,8.59,0,0,0,.52-2.48.94.94,0,0,0-.11-.57.28.28,0,0,0-.19-.13c-.24,0-.64.37-1.21,1.12a31.07,31.07,0,0,0-2,3c-.77,1.26-1.54,2.69-2.33,4.3s-1.54,3.29-2.26,5S93.37,30.17,92.87,31.86Z" transform="translate(-0.06 -0.01)"/><path class="cls-1" d="M101.38,43.31a3.2,3.2,0,0,1-2.3-.9,3.62,3.62,0,0,1-1-2.74,9.46,9.46,0,0,1,.71-3.4,16.77,16.77,0,0,1,1.93-3.59,19.64,19.64,0,0,1,2.78-3.25,13.8,13.8,0,0,1,3.29-2.34,7.48,7.48,0,0,1,3.44-.88,4.46,4.46,0,0,1,2.85.9,2.88,2.88,0,0,1,1.14,2.39,1.68,1.68,0,0,1-.59,1.49,2.79,2.79,0,0,1-1.56.39c.06-.23.11-.49.16-.77a5.27,5.27,0,0,0,.06-.76,3.05,3.05,0,0,0-.48-1.73,1.84,1.84,0,0,0-1.67-.73,4.49,4.49,0,0,0-2.5.86,12,12,0,0,0-2.45,2.28,20.28,20.28,0,0,0-2.11,3.09,19,19,0,0,0-1.44,3.29,9.51,9.51,0,0,0-.53,2.89c0,1.14.39,1.71,1.18,1.71a3.62,3.62,0,0,0,2.2-.94A17.7,17.7,0,0,0,107,38.16c.83-1,1.63-2,2.39-3s1.43-2,2-2.89c.11-.18.19-.27.22-.27a5.44,5.44,0,0,1,.68.18,2.54,2.54,0,0,1,.72.35.7.7,0,0,1,.31.57,2.3,2.3,0,0,1-.4,1.07L112,35.68a19.57,19.57,0,0,0-.88,1.78,4.1,4.1,0,0,0-.4,1.68,2.73,2.73,0,0,0,.35,1.3,1.22,1.22,0,0,0,1.14.63c.79,0,1.83-.57,3.12-1.73a21,21,0,0,0,3.9-5.19l.44.43a15.67,15.67,0,0,1-2.37,4.17,12.21,12.21,0,0,1-3.09,2.81,6.16,6.16,0,0,1-3.22,1,2.86,2.86,0,0,1-2.39-1,3.31,3.31,0,0,1-.77-2.11,4.38,4.38,0,0,1,0-.59c0-.22.06-.44.09-.68A21.53,21.53,0,0,1,104.56,42,5,5,0,0,1,101.38,43.31Z" transform="translate(-0.06 -0.01)"/><path class="cls-1" d="M140.49,42.61a2.61,2.61,0,0,1-2.23-.94,3.69,3.69,0,0,1-.71-2.26,8,8,0,0,1,.33-2.2c.22-.73.44-1.44.66-2.14a6.43,6.43,0,0,0,.33-1.89,1.62,1.62,0,0,0-.39-1.23,1.33,1.33,0,0,0-.88-.35c-.73,0-1.53.57-2.39,1.71s-2,2.75-3.36,4.83a15.45,15.45,0,0,0-1.18,2.12c-.32.72-.63,1.37-.92,2a6.62,6.62,0,0,1-.88-.08,3.7,3.7,0,0,1-.94-.29c-.28-.13-.42-.3-.42-.5a6.16,6.16,0,0,1,.42-1.47c.28-.78.6-1.68,1-2.72s.69-2.09,1-3.16a11.09,11.09,0,0,0,.42-2.74A2.63,2.63,0,0,0,130,30a.91.91,0,0,0-.86-.46,3.89,3.89,0,0,0-2.32,1.17,19.72,19.72,0,0,0-2.81,3,37.29,37.29,0,0,0-2.74,4.15,26.87,26.87,0,0,0-2.08,4.49,4.26,4.26,0,0,1-1-.13,4.09,4.09,0,0,1-1-.35c-.27-.15-.41-.29-.41-.44a7.81,7.81,0,0,1,.46-1.56c.31-.86.66-1.89,1.05-3.11s.75-2.45,1-3.7a14.14,14.14,0,0,0,.46-3.34,3,3,0,0,1,.84-.61,2.51,2.51,0,0,1,1.18-.31,1.19,1.19,0,0,1,.9.31,1.16,1.16,0,0,1,.29.83,10.66,10.66,0,0,1-.33,1.95c-.22.93-.49,1.94-.82,3.05.59-.93,1.25-1.89,2-2.87a27.08,27.08,0,0,1,2.35-2.7,13.23,13.23,0,0,1,2.47-2,4.7,4.7,0,0,1,2.44-.77,1.9,1.9,0,0,1,1.86,1,5,5,0,0,1,.5,2.34,11.76,11.76,0,0,1-.24,2.3c-.16.81-.34,1.55-.54,2.24s-.4,1.24-.57,1.65a33,33,0,0,1,2-3.23,11.86,11.86,0,0,1,2.44-2.54,4.56,4.56,0,0,1,2.8-1,2.17,2.17,0,0,1,2,.84,3.52,3.52,0,0,1,.54,2,9.14,9.14,0,0,1-.39,2.5c-.26.91-.53,1.78-.81,2.63a7.19,7.19,0,0,0-.42,2.19,1.9,1.9,0,0,0,.29,1,1.1,1.1,0,0,0,1,.46A3.16,3.16,0,0,0,144,40a13.58,13.58,0,0,0,2-2.71,32.41,32.41,0,0,0,1.58-3.09l.53.61a22.94,22.94,0,0,1-1.8,3.66,11.28,11.28,0,0,1-2.56,3A5,5,0,0,1,140.49,42.61Z" transform="translate(-0.06 -0.01)"/><path class="cls-1" d="M151.46,43.18a4.84,4.84,0,0,1-5.35-5.09,10.1,10.1,0,0,1,1-4.16,17.48,17.48,0,0,1,2.63-4.13,15.34,15.34,0,0,1,3.62-3.13,7.42,7.42,0,0,1,3.9-1.21,3.5,3.5,0,0,1,1.87.53,2.34,2.34,0,0,1,.85,2.15,5.56,5.56,0,0,1-1,3.13,10.18,10.18,0,0,1-2.59,2.61,15.93,15.93,0,0,1-3.51,1.87,14.27,14.27,0,0,1-3.79.89c-.06.3-.1.57-.13.84a6.57,6.57,0,0,0-.05.74,5.42,5.42,0,0,0,.16,1.32,3.26,3.26,0,0,0,.54,1.2,2.65,2.65,0,0,0,1.08.86,4.15,4.15,0,0,0,1.69.31,7.27,7.27,0,0,0,3.72-1.08A14.08,14.08,0,0,0,159.52,38a18.31,18.31,0,0,0,2.68-3.85l.52.39a16.33,16.33,0,0,1-3,4.56,14,14,0,0,1-3.95,3A9.39,9.39,0,0,1,151.46,43.18Zm-2.15-7.37A18.81,18.81,0,0,0,152,34.65a19,19,0,0,0,2.87-1.82,10.86,10.86,0,0,0,2.28-2.32,4.57,4.57,0,0,0,.9-2.68,1.37,1.37,0,0,0-.17-.74.85.85,0,0,0-.75-.27,4,4,0,0,0-2.23.81,11.24,11.24,0,0,0-2.28,2.13,18.65,18.65,0,0,0-2,2.89A14.81,14.81,0,0,0,149.31,35.81Z" transform="translate(-0.06 -0.01)"/><path class="cls-1" d="M175.49,42.13a3.11,3.11,0,0,1-2.31-.79,2.79,2.79,0,0,1-.76-2,6.49,6.49,0,0,1,.32-1.93c.22-.67.44-1.37.64-2.08a7.78,7.78,0,0,0,.31-2.09,2.2,2.2,0,0,0-.51-1.68,1.76,1.76,0,0,0-1.25-.46,4.49,4.49,0,0,0-2.76,1.11A16.21,16.21,0,0,0,166.45,35q-1.3,1.74-2.45,3.58c-.76,1.23-1.44,2.32-2,3.29a3.78,3.78,0,0,1-1.34-.24,2.17,2.17,0,0,1-1-.73,6.32,6.32,0,0,1,.46-1.36c.3-.76.66-1.69,1.07-2.8s.77-2.26,1.1-3.42a12.25,12.25,0,0,0,.48-3.21,3,3,0,0,1,.83-.61,2.54,2.54,0,0,1,1.19-.31c.79,0,1.18.38,1.18,1.14a11.83,11.83,0,0,1-.39,2.35c-.27,1.1-.6,2.24-1,3.44a40.08,40.08,0,0,1,2.65-3.57,16.34,16.34,0,0,1,3.13-3,5.78,5.78,0,0,1,3.34-1.19,2.71,2.71,0,0,1,2.48,1.23,5.05,5.05,0,0,1,.76,2.72,6.88,6.88,0,0,1-.44,2.52c-.29.78-.59,1.52-.9,2.24a5.57,5.57,0,0,0-.46,2.17,1.79,1.79,0,0,0,.38,1.29,1.27,1.27,0,0,0,.94.38,3.24,3.24,0,0,0,2.19-1,14.19,14.19,0,0,0,2.13-2.6,30.35,30.35,0,0,0,1.82-3.2l.48.56A21.77,21.77,0,0,1,181,38.53a10.2,10.2,0,0,1-2.5,2.63A5.13,5.13,0,0,1,175.49,42.13Z" transform="translate(-0.06 -0.01)"/><path class="cls-1" d="M186.45,43.7a4.76,4.76,0,0,1-3.51-1.4,5.71,5.71,0,0,1-1.4-4.21,11.1,11.1,0,0,1,.85-4.27,13.93,13.93,0,0,1,2.26-3.75,11.91,11.91,0,0,1,3.11-2.66,6.8,6.8,0,0,1,3.38-1,2.68,2.68,0,0,1,2.46,1.05,4.27,4.27,0,0,1,.06,4.43,1.8,1.8,0,0,1-1.6,1,1.59,1.59,0,0,1-1.27-.65,2.87,2.87,0,0,0,1.14-1.43,5,5,0,0,0,.48-2,1.35,1.35,0,0,0-.2-.81.86.86,0,0,0-.76-.29A3.88,3.88,0,0,0,189,28.71a12.22,12.22,0,0,0-2.32,2.72,18.21,18.21,0,0,0-1.76,3.5,10.12,10.12,0,0,0-.67,3.47,4.88,4.88,0,0,0,.65,2.5A2.69,2.69,0,0,0,187.46,42a7.29,7.29,0,0,0,3.53-1,11.84,11.84,0,0,0,3.31-2.76,14.21,14.21,0,0,0,2.45-4.21l.57.44a16.31,16.31,0,0,1-2.76,4.71,14.17,14.17,0,0,1-3.86,3.27A8.57,8.57,0,0,1,186.45,43.7Z" transform="translate(-0.06 -0.01)"/><path class="cls-2" d="M20.56,23.84S3.88,7.66,15.09,3.88a9.49,9.49,0,0,1,6.24.54S27,6.75,30.69,4c0,0,11.68-10.51,9.32,4.83,0,0-1.52,10.53-5.58,17.09a7.92,7.92,0,0,1-4.19,4.25S28,31.11,20.56,23.84Z" transform="translate(-0.06 -0.01)"/><path class="cls-3" d="M36.6,20.51S52.77,3.82,56.56,15A9.42,9.42,0,0,1,56,21.27s-2.32,5.7.4,9.36c0,0,10.52,11.68-4.83,9.32,0,0-10.53-1.51-17.09-5.57a8,8,0,0,1-4.25-4.19S29.32,27.9,36.6,20.51Z" transform="translate(-0.06 -0.01)"/><path class="cls-4" d="M39.93,36.54s16.68,16.18,5.47,20A9.49,9.49,0,0,1,39.16,56s-5.7-2.33-9.36.4c0,0-11.68,10.51-9.32-4.83,0,0,1.52-10.53,5.58-17.09a7.92,7.92,0,0,1,4.18-4.25S32.53,29.27,39.93,36.54Z" transform="translate(-0.06 -0.01)"/><path class="cls-5" d="M23.89,39.87s-16.17,16.69-20,5.47a9.42,9.42,0,0,1,.55-6.23s2.32-5.7-.4-9.36c0,0-10.52-11.68,4.83-9.32,0,0,10.53,1.51,17.09,5.57a7.92,7.92,0,0,1,4.24,4.19S31.17,32.48,23.89,39.87Z" transform="translate(-0.06 -0.01)"/><path class="cls-6" d="M23.6,25.83s-11.45-11.1-3.76-13.7a6.47,6.47,0,0,1,4.28.37s3.92,1.6,6.43-.27c0,0,8-7.22,6.4,3.31,0,0-1,7.23-3.83,11.73a5.46,5.46,0,0,1-2.88,2.92S28.68,30.82,23.6,25.83Z" transform="translate(-0.06 -0.01)"/><path class="cls-6" d="M34.6,23.54s11.11-11.45,13.71-3.75a6.51,6.51,0,0,1-.38,4.28s-1.59,3.91.28,6.42c0,0,7.22,8-3.32,6.4,0,0-7.23-1-11.73-3.83a5.42,5.42,0,0,1-2.92-2.87S29.61,28.62,34.6,23.54Z" transform="translate(-0.06 -0.01)"/><path class="cls-6" d="M36.89,34.55s11.45,11.1,3.76,13.7a6.5,6.5,0,0,1-4.29-.37s-3.91-1.6-6.42.27c0,0-8,7.22-6.4-3.31,0,0,1-7.23,3.83-11.73a5.47,5.47,0,0,1,2.87-2.92S31.81,29.56,36.89,34.55Z" transform="translate(-0.06 -0.01)"/><path class="cls-6" d="M25.88,36.84s-11.1,11.45-13.7,3.75a6.51,6.51,0,0,1,.38-4.28s1.59-3.91-.28-6.42c0,0-7.22-8,3.32-6.4,0,0,7.23,1,11.73,3.82a5.43,5.43,0,0,1,2.91,2.88S30.88,31.76,25.88,36.84Z" transform="translate(-0.06 -0.01)"/><path class="cls-7" d="M26.64,27.82s-6.22-6-2-7.43a3.53,3.53,0,0,1,2.32.2s2.13.86,3.49-.15c0,0,4.35-3.92,3.47,1.8a20,20,0,0,1-2.07,6.37,3,3,0,0,1-1.57,1.58S29.39,30.53,26.64,27.82Z" transform="translate(-0.06 -0.01)"/><path class="cls-8" d="M32.61,26.58s6-6.21,7.44-2a3.56,3.56,0,0,1-.2,2.33S39,29,40,30.35c0,0,3.91,4.36-1.8,3.48a20.08,20.08,0,0,1-6.37-2.08,3,3,0,0,1-1.59-1.56S29.9,29.34,32.61,26.58Z" transform="translate(-0.06 -0.01)"/><path class="cls-9" d="M33.85,32.56s6.22,6,2,7.43a3.53,3.53,0,0,1-2.32-.2s-2.13-.86-3.49.15c0,0-4.35,3.92-3.47-1.8a20,20,0,0,1,2.07-6.37,3,3,0,0,1,1.56-1.58S31.1,29.85,33.85,32.56Z" transform="translate(-0.06 -0.01)"/><path class="cls-10" d="M27.88,33.8s-6,6.21-7.44,2a3.56,3.56,0,0,1,.2-2.33s.87-2.12-.15-3.48c0,0-3.91-4.36,1.8-3.48a20.08,20.08,0,0,1,6.37,2.08,2.93,2.93,0,0,1,1.58,1.56S30.59,31,27.88,33.8Z" transform="translate(-0.06 -0.01)"/><path class="cls-1" d="M28,28.71s-3.89-3.77-1.28-4.65a2.21,2.21,0,0,1,1.46.13,2.53,2.53,0,0,0,2.18-.1s2.72-2.45,2.17,1.13a12.41,12.41,0,0,1-1.3,4,1.84,1.84,0,0,1-1,1S29.71,30.4,28,28.71Z" transform="translate(-0.06 -0.01)"/><path class="cls-1" d="M31.72,27.93s3.77-3.88,4.66-1.27a2.18,2.18,0,0,1-.13,1.45,2.56,2.56,0,0,0,.09,2.18s2.45,2.72-1.12,2.17a12.58,12.58,0,0,1-4-1.29,1.88,1.88,0,0,1-1-1S30,29.66,31.72,27.93Z" transform="translate(-0.06 -0.01)"/><path class="cls-1" d="M32.5,31.67s3.89,3.77,1.28,4.65a2.21,2.21,0,0,1-1.46-.13,2.54,2.54,0,0,0-2.18.1S27.42,38.74,28,35.16a12.41,12.41,0,0,1,1.3-4,1.84,1.84,0,0,1,1-1S30.78,30,32.5,31.67Z" transform="translate(-0.06 -0.01)"/><path class="cls-1" d="M28.76,32.45S25,36.33,24.11,33.72a2.18,2.18,0,0,1,.13-1.45,2.56,2.56,0,0,0-.09-2.18s-2.45-2.73,1.12-2.17a12.48,12.48,0,0,1,4,1.29,1.85,1.85,0,0,1,1,1S30.46,30.72,28.76,32.45Z" transform="translate(-0.06 -0.01)"/><ellipse class="cls-11" cx="27.72" cy="31.62" rx="2.07" ry="3" transform="translate(-13.39 22.51) rotate(-36.25)"/><ellipse class="cls-11" cx="32.46" cy="27.64" rx="2.08" ry="3.07"/><circle class="cls-11" cx="32.42" cy="32.74" r="1.52"/><circle class="cls-11" cx="30.66" cy="35.71" r="1.52"/></svg>